<?xml version="1.0" encoding="utf-8"?>
<!-- Generator: Adobe Illustrator 27.0.0, SVG Export Plug-In . SVG Version: 6.00 Build 0)  -->
<svg version="1.1" id="图层_1" xmlns="http://www.w3.org/2000/svg" xmlns:xlink="http://www.w3.org/1999/xlink" x="0px" y="0px"
	 viewBox="0 0 850 415" style="enable-background:new 0 0 850 415;" xml:space="preserve">
<style type="text/css">
	.st0{clip-path:url(#SVGID_00000129207310443921076630000010387186691664650909_);}
	.st1{fill:#FFFFFF;}
	.st2{fill:#0066FF;fill-opacity:0.1;}
	.st3{fill:#0066FF;}
	.st4{clip-path:url(#SVGID_00000115506513781022592140000012404903747839787190_);}
	.st5{fill:#F2F3F7;}
	.st6{opacity:0.5;fill:#303134;enable-background:new    ;}
	.st7{fill:#E5E9F0;}
	.st8{fill-rule:evenodd;clip-rule:evenodd;fill:#FFFFFF;}
	.st9{fill:none;stroke:#E5E9F0;}
	.st10{fill:none;stroke:#D7DEE3;}
	.st11{fill:#4A4B50;}
	.st12{fill:none;stroke:#D7DEE3;stroke-width:0.825;}
	.st13{fill:#0066FF;fill-opacity:0.2;}
	.st14{fill:#D7DEE3;}
	.st15{opacity:0.5;fill:#4A4B50;enable-background:new    ;}
</style>
<g>
	<defs>
		<path id="SVGID_1_" d="M8,0.5h834c4.418,0,8,3.582,8,8v398c0,4.418-3.582,8-8,8H8c-4.418,0-8-3.582-8-8V8.5
			C0,4.082,3.582,0.5,8,0.5z"/>
	</defs>
	<clipPath id="SVGID_00000168093095755126228680000006831676770564840116_">
		<use xlink:href="#SVGID_1_"  style="overflow:visible;"/>
	</clipPath>
	<g style="clip-path:url(#SVGID_00000168093095755126228680000006831676770564840116_);">
		<path class="st1" d="M8,0.5h834c4.418,0,8,3.582,8,8v398c0,4.418-3.582,8-8,8H8c-4.418,0-8-3.582-8-8V8.5C0,4.082,3.582,0.5,8,0.5
			z"/>
		<path class="st2" d="M56,0.5H0v56L56,0.5z"/>
		<path class="st3" d="M6.252,32.487l8.22-8.22l0.622,0.622l-3.555,3.555l3.348,3.348c0.691,0.69,0.677,1.4-0.041,2.13
			c-0.384,0.384-0.818,0.812-1.301,1.284c-0.26-0.193-0.555-0.406-0.887-0.638c0.481-0.392,0.914-0.782,1.301-1.168
			c0.376-0.376,0.378-0.748,0.008-1.119l-3.132-3.132l-3.961,3.961L6.252,32.487z M4.57,29.28l6.72-6.72l0.622,0.622l-6.72,6.72
			L4.57,29.28z M13.594,28.394l0.182-0.928c1.514,0.155,3.041,0.367,4.582,0.638l-0.207,1.003
			C16.467,28.791,14.947,28.554,13.594,28.394z M9.318,31.89l0.945-0.265c0.425,1.586,0.762,3.16,1.011,4.723
			c-0.298,0.044-0.611,0.097-0.936,0.157C10.155,35.086,9.815,33.548,9.318,31.89z M21.259,23.612l0.062-0.775l-2.125,2.125
			l0.257,0.257l-0.613,0.613l-2.867-2.867l5.9-5.9l2.867,2.867l-0.613,0.613l-0.257-0.257l-2.527,2.527
			c0.669-0.055,1.284-0.075,1.848-0.058l-0.083,0.895C22.604,23.615,21.988,23.601,21.259,23.612z M13.942,23.074l2.328-2.329
			c-0.425,0.011-0.845,0.033-1.26,0.066l0.017-0.481l-1.4,1.4l-0.497-0.497l3.302-3.302c-0.345-0.119-0.681-0.22-1.007-0.302
			l0.323-0.804c0.492,0.133,0.945,0.276,1.359,0.431l3.082-3.082l0.497,0.497l-1.446,1.446l0.501-0.07
			c-0.017,0.425-0.04,0.858-0.07,1.297l2.357-2.357l0.497,0.497l-8.087,8.088L13.942,23.074z M19.817,24.971l0.63-0.63l0.945,0.945
			c0.32,0.32,0.663,0.298,1.028-0.066l1.699-1.699c0.398-0.398,0.481-0.784,0.249-1.16c-0.155-0.265-0.354-0.563-0.597-0.895
			c0.276-0.111,0.561-0.24,0.854-0.389c0.249,0.381,0.442,0.696,0.58,0.945c0.381,0.646,0.265,1.276-0.348,1.889l-2.005,2.005
			c-0.696,0.696-1.373,0.715-2.03,0.058L19.817,24.971z M18.715,24.482l4.674-4.674l-0.597-0.597l-4.674,4.674L18.715,24.482z
			 M21.74,18.16l-4.674,4.674l0.588,0.588l4.674-4.674L21.74,18.16z M18.798,17.92c0.036-0.412,0.055-0.884,0.058-1.417
			l-3.505,3.505c0.428-0.063,0.862-0.111,1.301-0.141l-0.004,0.501l2.449-2.449H18.798z M18.541,26.33l0.804-0.356
			c0.304,0.702,0.58,1.442,0.829,2.221c-0.243,0.088-0.522,0.196-0.837,0.323C19.154,27.883,18.889,27.153,18.541,26.33z
			 M24.872,20.679l0.108-0.837c0.812,0.028,1.558,0.072,2.237,0.133l-0.108,0.936C26.33,20.806,25.584,20.729,24.872,20.679z
			 M21.01,12.426l7.309-7.309l7.798,7.797l-0.622,0.622l-0.398-0.398l-6.066,6.066l0.398,0.398l-0.622,0.622L21.01,12.426z
			 M28.294,6.335l-6.066,6.066l6.207,6.207l6.066-6.066L28.294,6.335z M24.54,14.149c0.21-1.304,0.188-2.569-0.066-3.795l0.804-0.29
			c0.05,0.254,0.088,0.514,0.116,0.779l2.933-2.933l0.489,0.489c0.086,0.898,0.011,1.859-0.224,2.884
			c0.779-0.387,1.646-0.947,2.602-1.682c0.122,0.376,0.238,0.674,0.348,0.895c-1.204,0.757-2.286,1.333-3.244,1.728
			c-0.373,0.981-0.974,2.175-1.802,3.584c-0.26-0.105-0.53-0.188-0.812-0.249c0.771-1.168,1.344-2.197,1.719-3.087
			c-0.657,0.122-1.301,0.149-1.931,0.083c-0.011,0.514-0.051,1.045-0.12,1.595C25.126,14.144,24.855,14.144,24.54,14.149z
			 M28.344,16.759l-0.398-0.746c1.563-1.199,3.105-2.315,4.624-3.348l0.406,0.853C31.484,14.47,29.94,15.55,28.344,16.759z
			 M28.021,9.244L25.464,11.8c0.003,0.019,0.004,0.037,0.004,0.054c0.732,0.091,1.475,0.025,2.229-0.199
			C27.963,10.777,28.07,9.973,28.021,9.244z M28.112,14.787l-0.389-0.721c0.934-0.691,1.925-1.406,2.975-2.146l0.406,0.754
			C30.015,13.398,29.018,14.102,28.112,14.787z"/>
		<g>
			<defs>
				<path id="SVGID_00000011715803111946191990000011117097056670922393_" d="M255,52.5h156c6.627,0,12,5.373,12,12l0,0
					c0,6.627-5.373,12-12,12H255c-6.627,0-12-5.373-12-12l0,0C243,57.873,248.373,52.5,255,52.5z"/>
			</defs>
			<clipPath id="SVGID_00000091731021377824952030000003064426382042882442_">
				<use xlink:href="#SVGID_00000011715803111946191990000011117097056670922393_"  style="overflow:visible;"/>
			</clipPath>
			<g style="clip-path:url(#SVGID_00000091731021377824952030000003064426382042882442_);">
				<path class="st5" d="M255,52.5h156c6.627,0,12,5.373,12,12l0,0c0,6.627-5.373,12-12,12H255c-6.627,0-12-5.373-12-12l0,0
					C243,57.873,248.373,52.5,255,52.5z"/>
				<path class="st6" d="M293.354,69.5h-1.149v-3.721c0-0.703-0.109-1.205-0.328-1.506c-0.219-0.305-0.578-0.457-1.078-0.457
					c-0.422,0-0.783,0.197-1.084,0.592c-0.301,0.394-0.451,0.861-0.451,1.4V69.5h-1.149v-3.838c0-1.23-0.474-1.846-1.424-1.846
					c-0.437,0-0.8,0.188-1.089,0.562c-0.286,0.375-0.428,0.854-0.428,1.436V69.5h-1.149v-6.48h1.149v1.025h0.023
					c0.461-0.785,1.135-1.178,2.022-1.178c0.433,0,0.816,0.119,1.148,0.357c0.332,0.238,0.563,0.561,0.692,0.967
					c0.48-0.883,1.199-1.324,2.156-1.324c1.426,0,2.139,0.879,2.139,2.637V69.5z M299.752,69.207
					c-0.496,0.297-1.094,0.445-1.793,0.445c-0.938,0-1.691-0.301-2.262-0.902c-0.57-0.602-0.855-1.381-0.855-2.338
					c0-1.062,0.306-1.918,0.92-2.566c0.617-0.652,1.441-0.979,2.472-0.979c0.594,0,1.102,0.105,1.524,0.316v1.137
					c-0.457-0.336-0.965-0.504-1.524-0.504c-0.656,0-1.191,0.229-1.605,0.686c-0.41,0.453-0.615,1.059-0.615,1.816
					c0,0.746,0.193,1.33,0.58,1.752c0.39,0.422,0.916,0.633,1.576,0.633c0.559,0,1.086-0.184,1.582-0.551V69.207z M306.771,69.5
					h-1.142v-3.727c0-1.305-0.484-1.957-1.453-1.957c-0.496,0-0.908,0.191-1.237,0.574c-0.328,0.379-0.492,0.857-0.492,1.436V69.5
					h-1.148v-9.592h1.148v4.178h0.024c0.496-0.812,1.201-1.219,2.115-1.219c1.457,0,2.185,0.881,2.185,2.643V69.5z M308.26,66.33
					c0-1.07,0.299-1.914,0.896-2.531c0.598-0.621,1.408-0.932,2.432-0.932c0.973,0,1.734,0.299,2.285,0.896
					c0.555,0.594,0.832,1.416,0.832,2.467c0,1.023-0.295,1.85-0.885,2.479s-1.381,0.943-2.373,0.943
					c-0.968,0-1.742-0.305-2.32-0.914C308.549,68.129,308.26,67.326,308.26,66.33z M309.432,66.295c0,0.746,0.187,1.334,0.562,1.764
					c0.379,0.43,0.887,0.645,1.524,0.645c0.656,0,1.156-0.209,1.5-0.627c0.343-0.422,0.515-1.025,0.515-1.811
					c0-0.789-0.172-1.395-0.515-1.816c-0.344-0.422-0.844-0.633-1.5-0.633c-0.645,0-1.155,0.221-1.53,0.662
					C309.617,64.92,309.432,65.525,309.432,66.295z M315.959,68.1c0.578,0.418,1.201,0.627,1.869,0.627
					c0.895,0,1.342-0.293,1.342-0.879c0-0.25-0.098-0.455-0.293-0.615c-0.195-0.164-0.592-0.357-1.189-0.58
					c-0.719-0.289-1.186-0.574-1.401-0.855c-0.215-0.285-0.322-0.629-0.322-1.031c0-0.574,0.242-1.033,0.726-1.377
					c0.489-0.348,1.088-0.521,1.799-0.521c0.551,0,1.063,0.096,1.535,0.287v1.107c-0.484-0.313-1.033-0.469-1.646-0.469
					c-0.367,0-0.666,0.08-0.897,0.24c-0.23,0.16-0.345,0.371-0.345,0.633c0,0.258,0.082,0.459,0.246,0.604
					c0.168,0.145,0.537,0.33,1.107,0.557c0.723,0.27,1.211,0.549,1.465,0.838c0.254,0.289,0.381,0.646,0.381,1.072
					c0,0.594-0.244,1.062-0.732,1.406c-0.485,0.34-1.114,0.51-1.887,0.51c-0.672,0-1.258-0.127-1.758-0.381V68.1z M327.156,66.553
					h-4.535c0.02,0.691,0.209,1.227,0.568,1.606c0.36,0.375,0.862,0.562,1.506,0.562c0.727,0,1.393-0.232,1.998-0.697v1.025
					c-0.57,0.402-1.326,0.604-2.267,0.604c-0.938,0-1.67-0.297-2.197-0.891c-0.524-0.594-0.786-1.418-0.786-2.473
					c0-0.992,0.287-1.811,0.862-2.455c0.578-0.645,1.295-0.967,2.15-0.967c0.848,0,1.51,0.273,1.986,0.82
					c0.477,0.543,0.715,1.305,0.715,2.285V66.553z M326.008,65.633c-0.004-0.586-0.143-1.039-0.416-1.359
					c-0.274-0.32-0.658-0.48-1.154-0.48c-0.458,0-0.854,0.17-1.19,0.51c-0.332,0.34-0.541,0.783-0.627,1.33H326.008z
					 M328.357,68.896c0-0.211,0.073-0.389,0.217-0.533c0.145-0.144,0.324-0.217,0.539-0.217c0.219,0,0.401,0.074,0.545,0.223
					c0.145,0.145,0.217,0.32,0.217,0.527c0,0.203-0.072,0.379-0.217,0.527c-0.144,0.145-0.328,0.217-0.551,0.217
					c-0.214,0-0.394-0.072-0.539-0.217C328.428,69.275,328.357,69.1,328.357,68.896z M336.057,69.207
					c-0.496,0.297-1.094,0.445-1.793,0.445c-0.938,0-1.692-0.301-2.262-0.902c-0.57-0.602-0.856-1.381-0.856-2.338
					c0-1.062,0.307-1.918,0.92-2.566c0.618-0.652,1.442-0.979,2.473-0.979c0.594,0,1.102,0.105,1.523,0.316v1.137
					c-0.457-0.336-0.964-0.504-1.523-0.504c-0.656,0-1.191,0.229-1.605,0.686c-0.411,0.453-0.616,1.059-0.616,1.816
					c0,0.746,0.194,1.33,0.58,1.752c0.391,0.422,0.916,0.633,1.577,0.633c0.558,0,1.086-0.184,1.582-0.551V69.207z M337.17,66.33
					c0-1.07,0.299-1.914,0.896-2.531c0.598-0.621,1.409-0.932,2.432-0.932c0.973,0,1.734,0.299,2.285,0.896
					c0.555,0.594,0.832,1.416,0.832,2.467c0,1.023-0.295,1.85-0.885,2.479c-0.589,0.629-1.38,0.943-2.373,0.943
					c-0.968,0-1.742-0.305-2.32-0.914C337.459,68.129,337.17,67.326,337.17,66.33z M338.342,66.295c0,0.746,0.187,1.334,0.562,1.764
					c0.379,0.43,0.887,0.645,1.524,0.645c0.656,0,1.156-0.209,1.5-0.627c0.343-0.422,0.515-1.025,0.515-1.811
					c0-0.789-0.172-1.395-0.515-1.816c-0.344-0.422-0.844-0.633-1.5-0.633c-0.645,0-1.155,0.221-1.53,0.662
					C338.527,64.92,338.342,65.525,338.342,66.295z M354.561,69.5h-1.149v-3.721c0-0.703-0.109-1.205-0.328-1.506
					c-0.219-0.305-0.578-0.457-1.078-0.457c-0.422,0-0.783,0.197-1.084,0.592c-0.301,0.394-0.451,0.861-0.451,1.4V69.5h-1.149
					v-3.838c0-1.23-0.474-1.846-1.424-1.846c-0.437,0-0.8,0.188-1.089,0.562c-0.286,0.375-0.428,0.854-0.428,1.436V69.5h-1.149
					v-6.48h1.149v1.025h0.023c0.461-0.785,1.135-1.178,2.022-1.178c0.433,0,0.816,0.119,1.148,0.357
					c0.332,0.238,0.563,0.561,0.692,0.967c0.48-0.883,1.199-1.324,2.156-1.324c1.426,0,2.139,0.879,2.139,2.637V69.5z
					 M356.154,68.896c0-0.211,0.073-0.389,0.217-0.533c0.145-0.144,0.324-0.217,0.539-0.217c0.219,0,0.401,0.074,0.545,0.223
					c0.145,0.145,0.217,0.32,0.217,0.527c0,0.203-0.072,0.379-0.217,0.527c-0.144,0.145-0.328,0.217-0.551,0.217
					c-0.215,0-0.394-0.072-0.539-0.217C356.225,69.275,356.154,69.1,356.154,68.896z M363.854,69.207
					c-0.497,0.297-1.094,0.445-1.793,0.445c-0.938,0-1.692-0.301-2.262-0.902c-0.57-0.602-0.856-1.381-0.856-2.338
					c0-1.062,0.307-1.918,0.92-2.566c0.617-0.652,1.442-0.979,2.473-0.979c0.594,0,1.102,0.105,1.523,0.316v1.137
					c-0.457-0.336-0.964-0.504-1.523-0.504c-0.656,0-1.191,0.229-1.606,0.686c-0.41,0.453-0.615,1.059-0.615,1.816
					c0,0.746,0.194,1.33,0.58,1.752c0.391,0.422,0.916,0.633,1.576,0.633c0.559,0,1.086-0.184,1.583-0.551V69.207z M370.879,69.5
					h-1.143v-3.686c0-1.332-0.486-1.998-1.459-1.998c-0.504,0-0.918,0.188-1.242,0.562s-0.486,0.85-0.486,1.424V69.5H365.4v-6.48
					h1.149v1.072h0.023c0.489-0.816,1.198-1.225,2.127-1.225c0.711,0,1.252,0.229,1.623,0.686c0.371,0.453,0.557,1.115,0.557,1.986
					V69.5z M372.467,63.623c0-0.211,0.074-0.387,0.222-0.527c0.149-0.141,0.327-0.211,0.534-0.211c0.211,0,0.39,0.072,0.539,0.217
					c0.148,0.141,0.222,0.314,0.222,0.521c0,0.207-0.072,0.383-0.216,0.527c-0.145,0.145-0.329,0.217-0.551,0.217
					c-0.211,0-0.389-0.072-0.533-0.217C372.539,64.006,372.467,63.83,372.467,63.623z M372.467,68.896
					c0-0.211,0.072-0.389,0.217-0.533c0.144-0.144,0.324-0.217,0.539-0.217c0.218,0,0.4,0.074,0.545,0.223
					c0.144,0.145,0.216,0.32,0.216,0.527c0,0.203-0.072,0.379-0.216,0.527c-0.145,0.145-0.329,0.217-0.551,0.217
					c-0.215,0-0.395-0.072-0.539-0.217C372.537,69.275,372.467,69.1,372.467,68.896z M375.748,68.27
					c0.5,0.289,1.039,0.434,1.617,0.434c0.813,0,1.442-0.32,1.887-0.961c0.449-0.641,0.674-1.551,0.674-2.73
					c-0.008,0.008-0.016,0.008-0.024,0c-0.398,0.758-1.068,1.137-2.009,1.137c-0.762,0-1.393-0.262-1.893-0.785
					c-0.5-0.523-0.75-1.203-0.75-2.039c0-0.891,0.273-1.621,0.82-2.191c0.547-0.574,1.256-0.861,2.127-0.861
					c0.903,0,1.608,0.355,2.115,1.066c0.508,0.707,0.762,1.738,0.762,3.094c0,1.676-0.328,2.965-0.984,3.867
					c-0.656,0.902-1.565,1.354-2.725,1.354c-0.636,0-1.176-0.104-1.617-0.311V68.27z M376.41,63.178
					c0,0.609,0.156,1.094,0.469,1.453c0.312,0.355,0.744,0.533,1.295,0.533c0.476,0,0.877-0.162,1.201-0.486
					c0.324-0.328,0.486-0.725,0.486-1.189c0-0.652-0.162-1.191-0.486-1.617c-0.32-0.43-0.744-0.645-1.271-0.645
					c-0.489,0-0.893,0.186-1.213,0.557C376.57,62.154,376.41,62.619,376.41,63.178z M382.791,68.27
					c0.5,0.289,1.039,0.434,1.617,0.434c0.813,0,1.442-0.32,1.887-0.961c0.449-0.641,0.674-1.551,0.674-2.73
					c-0.008,0.008-0.016,0.008-0.024,0c-0.398,0.758-1.068,1.137-2.009,1.137c-0.762,0-1.393-0.262-1.893-0.785
					c-0.5-0.523-0.75-1.203-0.75-2.039c0-0.891,0.273-1.621,0.82-2.191c0.547-0.574,1.256-0.861,2.127-0.861
					c0.903,0,1.608,0.355,2.115,1.066c0.508,0.707,0.762,1.738,0.762,3.094c0,1.676-0.328,2.965-0.984,3.867
					c-0.656,0.902-1.565,1.354-2.725,1.354c-0.637,0-1.176-0.104-1.617-0.311V68.27z M383.453,63.178
					c0,0.609,0.156,1.094,0.469,1.453c0.312,0.355,0.744,0.533,1.295,0.533c0.476,0,0.877-0.162,1.201-0.486
					c0.324-0.328,0.486-0.725,0.486-1.189c0-0.652-0.162-1.191-0.486-1.617c-0.32-0.43-0.744-0.645-1.272-0.645
					c-0.488,0-0.892,0.186-1.212,0.557C383.613,62.154,383.453,62.619,383.453,63.178z M389.834,68.27
					c0.5,0.289,1.039,0.434,1.617,0.434c0.813,0,1.442-0.32,1.887-0.961c0.449-0.641,0.674-1.551,0.674-2.73
					c-0.008,0.008-0.016,0.008-0.024,0c-0.398,0.758-1.068,1.137-2.009,1.137c-0.762,0-1.393-0.262-1.893-0.785
					c-0.5-0.523-0.75-1.203-0.75-2.039c0-0.891,0.273-1.621,0.82-2.191c0.547-0.574,1.256-0.861,2.127-0.861
					c0.903,0,1.608,0.355,2.115,1.066c0.508,0.707,0.762,1.738,0.762,3.094c0,1.676-0.328,2.965-0.984,3.867
					c-0.656,0.902-1.565,1.354-2.725,1.354c-0.637,0-1.176-0.104-1.617-0.311V68.27z M390.496,63.178
					c0,0.609,0.156,1.094,0.469,1.453c0.312,0.355,0.744,0.533,1.295,0.533c0.476,0,0.877-0.162,1.201-0.486
					c0.324-0.328,0.486-0.725,0.486-1.189c0-0.652-0.162-1.191-0.486-1.617c-0.32-0.43-0.744-0.645-1.272-0.645
					c-0.488,0-0.892,0.186-1.212,0.557C390.656,62.154,390.496,62.619,390.496,63.178z M396.877,68.27
					c0.5,0.289,1.039,0.434,1.617,0.434c0.813,0,1.442-0.32,1.887-0.961c0.449-0.641,0.674-1.551,0.674-2.73
					c-0.008,0.008-0.016,0.008-0.024,0c-0.398,0.758-1.068,1.137-2.01,1.137c-0.761,0-1.392-0.262-1.892-0.785
					c-0.5-0.523-0.75-1.203-0.75-2.039c0-0.891,0.273-1.621,0.82-2.191c0.547-0.574,1.256-0.861,2.127-0.861
					c0.903,0,1.608,0.355,2.115,1.066c0.508,0.707,0.762,1.738,0.762,3.094c0,1.676-0.328,2.965-0.984,3.867
					c-0.657,0.902-1.565,1.354-2.725,1.354c-0.637,0-1.176-0.104-1.617-0.311V68.27z M397.539,63.178
					c0,0.609,0.156,1.094,0.469,1.453c0.312,0.355,0.744,0.533,1.295,0.533c0.476,0,0.877-0.162,1.201-0.486
					c0.324-0.328,0.486-0.725,0.486-1.189c0-0.652-0.162-1.191-0.486-1.617c-0.32-0.43-0.744-0.645-1.272-0.645
					c-0.488,0-0.892,0.186-1.212,0.557C397.699,62.154,397.539,62.619,397.539,63.178z"/>
				<path class="st7" d="M255,52h12c6.627,0,12,5.373,12,12l0,0c0,6.627-5.373,12-12,12h-12c-6.627,0-12-5.373-12-12l0,0
					C243,57.373,248.373,52,255,52z"/>
				<path class="st8" d="M261,57.5c-1.749,0-3.167,1.418-3.167,3.167V62h-1.083c-0.598,0-1.083,0.485-1.083,1.083v6.5
					c0,0.598,0.485,1.083,1.083,1.083h8.5c0.598,0,1.083-0.485,1.083-1.083v-6.5c0-0.598-0.485-1.083-1.083-1.083h-1.083v-1.333
					C264.167,58.918,262.749,57.5,261,57.5z M263.167,62v-1.333c0-1.197-0.97-2.167-2.167-2.167s-2.167,0.97-2.167,2.167V62H263.167
					z M261.5,66.533c0.299-0.173,0.5-0.496,0.5-0.866c0-0.552-0.448-1-1-1s-1,0.448-1,1c0,0.37,0.201,0.693,0.5,0.866V68
					c0,0.276,0.224,0.5,0.5,0.5s0.5-0.224,0.5-0.5V66.533z"/>
			</g>
		</g>
		<path class="st1" d="M251,85h348c4.142,0,7.5,3.358,7.5,7.5v238c0,4.142-3.358,7.5-7.5,7.5H251c-4.142,0-7.5-3.358-7.5-7.5v-238
			C243.5,88.358,246.858,85,251,85z"/>
		<path class="st9" d="M251,85h348c4.142,0,7.5,3.358,7.5,7.5v238c0,4.142-3.358,7.5-7.5,7.5H251c-4.142,0-7.5-3.358-7.5-7.5v-238
			C243.5,88.358,246.858,85,251,85z"/>
		<path class="st6" d="M264.105,103.479l-2.094,7.021h-1.295l-1.397-4.926c-0.059-0.211-0.097-0.436-0.114-0.673h-0.025
			c-0.013,0.178-0.062,0.398-0.146,0.661l-1.511,4.938h-1.257l-2.107-7.021h1.295l1.402,5.206c0.043,0.156,0.075,0.37,0.096,0.641
			h0.05c0.017-0.233,0.058-0.453,0.121-0.66l1.511-5.187h1.149l1.472,5.212c0.043,0.152,0.077,0.368,0.102,0.647h0.057
			c0.009-0.186,0.047-0.402,0.114-0.647l1.371-5.212H264.105z M274.376,103.479l-2.095,7.021h-1.295l-1.396-4.926
			c-0.059-0.211-0.097-0.436-0.114-0.673h-0.026c-0.012,0.178-0.061,0.398-0.146,0.661l-1.511,4.938h-1.256l-2.108-7.021h1.295
			l1.403,5.206c0.042,0.156,0.074,0.37,0.095,0.641h0.051c0.017-0.233,0.057-0.453,0.121-0.66l1.51-5.187h1.149l1.473,5.212
			c0.042,0.152,0.076,0.368,0.101,0.647h0.058c0.008-0.186,0.046-0.402,0.114-0.647l1.371-5.212H274.376z M284.646,103.479
			l-2.094,7.021h-1.295l-1.397-4.926c-0.059-0.211-0.097-0.436-0.114-0.673h-0.025c-0.013,0.178-0.062,0.398-0.146,0.661
			l-1.511,4.938h-1.257l-2.107-7.021h1.295l1.402,5.206c0.043,0.156,0.075,0.37,0.096,0.641h0.05
			c0.017-0.233,0.058-0.453,0.121-0.66l1.511-5.187h1.149l1.472,5.212c0.043,0.152,0.077,0.368,0.102,0.647h0.057
			c0.009-0.186,0.047-0.402,0.114-0.647l1.371-5.212H284.646z M285.567,109.846c0-0.228,0.078-0.421,0.235-0.577
			c0.156-0.157,0.351-0.235,0.584-0.235c0.237,0,0.433,0.08,0.59,0.241c0.157,0.156,0.235,0.347,0.235,0.571
			c0,0.22-0.078,0.411-0.235,0.571c-0.157,0.157-0.355,0.235-0.597,0.235c-0.232,0-0.427-0.078-0.584-0.235
			C285.643,110.257,285.567,110.066,285.567,109.846z M299.164,110.5h-1.245v-4.031c0-0.761-0.118-1.305-0.355-1.631
			c-0.237-0.33-0.626-0.495-1.168-0.495c-0.457,0-0.848,0.213-1.174,0.641c-0.326,0.427-0.489,0.933-0.489,1.517v3.999h-1.244
			v-4.158c0-1.333-0.514-1.999-1.543-1.999c-0.474,0-0.867,0.203-1.18,0.609c-0.309,0.406-0.464,0.925-0.464,1.555v3.993h-1.244
			v-7.021h1.244v1.111h0.026c0.499-0.85,1.229-1.276,2.19-1.276c0.469,0,0.884,0.13,1.244,0.388
			c0.359,0.258,0.609,0.607,0.749,1.047c0.52-0.956,1.299-1.435,2.336-1.435c1.544,0,2.317,0.953,2.317,2.857V110.5z
			 M306.095,110.183c-0.537,0.321-1.185,0.482-1.942,0.482c-1.016,0-1.833-0.326-2.45-0.977c-0.618-0.652-0.927-1.496-0.927-2.533
			c0-1.151,0.332-2.078,0.996-2.78c0.669-0.707,1.562-1.061,2.679-1.061c0.643,0,1.194,0.115,1.651,0.343v1.232
			c-0.496-0.364-1.046-0.546-1.651-0.546c-0.711,0-1.291,0.247-1.739,0.742c-0.444,0.491-0.667,1.147-0.667,1.968
			c0,0.808,0.21,1.441,0.629,1.898c0.423,0.457,0.992,0.686,1.707,0.686c0.605,0,1.177-0.199,1.714-0.597V110.183z M313.7,110.5
			h-1.238v-4.037c0-1.414-0.525-2.12-1.574-2.12c-0.538,0-0.984,0.207-1.34,0.622c-0.355,0.41-0.533,0.929-0.533,1.555v3.98h-1.244
			v-10.391h1.244v4.526h0.026c0.537-0.88,1.301-1.321,2.291-1.321c1.578,0,2.368,0.955,2.368,2.863V110.5z M315.312,107.066
			c0-1.16,0.324-2.074,0.971-2.742c0.648-0.673,1.526-1.01,2.634-1.01c1.054,0,1.879,0.324,2.476,0.972
			c0.601,0.643,0.901,1.534,0.901,2.672c0,1.109-0.319,2.004-0.958,2.685s-1.496,1.022-2.571,1.022c-1.049,0-1.887-0.33-2.514-0.99
			C315.625,109.015,315.312,108.145,315.312,107.066z M316.582,107.028c0,0.808,0.203,1.445,0.609,1.91
			c0.41,0.466,0.961,0.699,1.65,0.699c0.711,0,1.253-0.227,1.625-0.679c0.373-0.458,0.559-1.111,0.559-1.962
			c0-0.855-0.186-1.511-0.559-1.968c-0.372-0.457-0.914-0.685-1.625-0.685c-0.698,0-1.25,0.239-1.656,0.717
			C316.783,105.538,316.582,106.194,316.582,107.028z M323.653,108.983c0.626,0.453,1.301,0.679,2.025,0.679
			c0.969,0,1.453-0.317,1.453-0.952c0-0.271-0.105-0.493-0.317-0.667c-0.212-0.177-0.641-0.387-1.289-0.628
			c-0.778-0.313-1.284-0.622-1.517-0.927c-0.232-0.309-0.349-0.681-0.349-1.117c0-0.622,0.263-1.119,0.787-1.492
			c0.529-0.376,1.179-0.565,1.949-0.565c0.597,0,1.151,0.104,1.663,0.311v1.2c-0.525-0.338-1.119-0.508-1.784-0.508
			c-0.397,0-0.721,0.087-0.971,0.261c-0.249,0.173-0.374,0.402-0.374,0.685c0,0.279,0.089,0.497,0.266,0.654
			c0.182,0.157,0.582,0.358,1.2,0.603c0.783,0.292,1.312,0.595,1.587,0.908c0.275,0.313,0.413,0.7,0.413,1.161
			c0,0.644-0.265,1.151-0.794,1.524c-0.525,0.368-1.206,0.552-2.044,0.552c-0.728,0-1.363-0.137-1.904-0.413V108.983z
			 M335.783,107.307h-4.913c0.021,0.749,0.227,1.329,0.616,1.739c0.389,0.407,0.933,0.61,1.631,0.61
			c0.787,0,1.509-0.252,2.165-0.756v1.111c-0.618,0.436-1.437,0.654-2.457,0.654c-1.015,0-1.809-0.322-2.38-0.965
			c-0.567-0.643-0.851-1.536-0.851-2.679c0-1.074,0.311-1.961,0.933-2.659c0.627-0.698,1.403-1.048,2.33-1.048
			c0.918,0,1.636,0.297,2.152,0.889c0.516,0.588,0.774,1.414,0.774,2.476V107.307z M334.539,106.311
			c-0.004-0.635-0.154-1.126-0.451-1.473c-0.296-0.347-0.713-0.521-1.25-0.521c-0.495,0-0.925,0.184-1.289,0.553
			c-0.359,0.368-0.586,0.848-0.679,1.441H334.539z M337.084,109.846c0-0.228,0.079-0.421,0.235-0.577
			c0.157-0.157,0.352-0.235,0.584-0.235c0.237,0,0.434,0.08,0.591,0.241c0.156,0.156,0.235,0.347,0.235,0.571
			c0,0.22-0.079,0.411-0.235,0.571c-0.157,0.157-0.356,0.235-0.597,0.235c-0.233,0-0.427-0.078-0.584-0.235
			C337.161,110.257,337.084,110.066,337.084,109.846z M345.425,110.183c-0.537,0.321-1.185,0.482-1.942,0.482
			c-1.016,0-1.832-0.326-2.45-0.977c-0.618-0.652-0.927-1.496-0.927-2.533c0-1.151,0.332-2.078,0.997-2.78
			c0.668-0.707,1.561-1.061,2.678-1.061c0.643,0,1.194,0.115,1.651,0.343v1.232c-0.495-0.364-1.046-0.546-1.651-0.546
			c-0.711,0-1.29,0.247-1.739,0.742c-0.444,0.491-0.667,1.147-0.667,1.968c0,0.808,0.21,1.441,0.629,1.898
			c0.423,0.457,0.992,0.686,1.707,0.686c0.606,0,1.177-0.199,1.714-0.597V110.183z M346.631,107.066c0-1.16,0.324-2.074,0.972-2.742
			c0.647-0.673,1.525-1.01,2.634-1.01c1.054,0,1.879,0.324,2.475,0.972c0.601,0.643,0.902,1.534,0.902,2.672
			c0,1.109-0.32,2.004-0.959,2.685s-1.496,1.022-2.571,1.022c-1.049,0-1.887-0.33-2.513-0.99
			C346.944,109.015,346.631,108.145,346.631,107.066z M347.901,107.028c0,0.808,0.203,1.445,0.609,1.91
			c0.411,0.466,0.961,0.699,1.651,0.699c0.711,0,1.252-0.227,1.625-0.679c0.372-0.458,0.558-1.111,0.558-1.962
			c0-0.855-0.186-1.511-0.558-1.968c-0.373-0.457-0.914-0.685-1.625-0.685c-0.699,0-1.251,0.239-1.657,0.717
			C348.102,105.538,347.901,106.194,347.901,107.028z M365.471,110.5h-1.244v-4.031c0-0.761-0.118-1.305-0.355-1.631
			c-0.237-0.33-0.627-0.495-1.168-0.495c-0.457,0-0.849,0.213-1.175,0.641c-0.326,0.427-0.488,0.933-0.488,1.517v3.999h-1.245
			v-4.158c0-1.333-0.514-1.999-1.542-1.999c-0.474,0-0.868,0.203-1.181,0.609c-0.309,0.406-0.463,0.925-0.463,1.555v3.993h-1.244
			v-7.021h1.244v1.111h0.025c0.5-0.85,1.23-1.276,2.19-1.276c0.47,0,0.885,0.13,1.244,0.388c0.36,0.258,0.61,0.607,0.749,1.047
			c0.521-0.956,1.3-1.435,2.336-1.435c1.545,0,2.317,0.953,2.317,2.857V110.5z M367.198,109.846c0-0.228,0.078-0.421,0.235-0.577
			c0.156-0.157,0.351-0.235,0.584-0.235c0.237,0,0.433,0.08,0.59,0.241c0.157,0.156,0.235,0.347,0.235,0.571
			c0,0.22-0.078,0.411-0.235,0.571c-0.157,0.157-0.356,0.235-0.597,0.235c-0.232,0-0.427-0.078-0.584-0.235
			C367.274,110.257,367.198,110.066,367.198,109.846z M375.539,110.183c-0.538,0.321-1.185,0.482-1.943,0.482
			c-1.015,0-1.832-0.326-2.45-0.977c-0.618-0.652-0.927-1.496-0.927-2.533c0-1.151,0.332-2.078,0.997-2.78
			c0.668-0.707,1.561-1.061,2.679-1.061c0.643,0,1.193,0.115,1.65,0.343v1.232c-0.495-0.364-1.045-0.546-1.65-0.546
			c-0.711,0-1.291,0.247-1.74,0.742c-0.444,0.491-0.666,1.147-0.666,1.968c0,0.808,0.209,1.441,0.628,1.898
			c0.423,0.457,0.993,0.686,1.708,0.686c0.605,0,1.176-0.199,1.714-0.597V110.183z M383.149,110.5h-1.237v-3.993
			c0-1.443-0.527-2.164-1.581-2.164c-0.546,0-0.994,0.203-1.346,0.609c-0.351,0.406-0.527,0.921-0.527,1.543v4.005h-1.244v-7.021
			h1.244v1.162h0.026c0.529-0.884,1.297-1.327,2.304-1.327c0.77,0,1.356,0.248,1.758,0.743c0.402,0.491,0.603,1.208,0.603,2.152
			V110.5z M384.87,104.133c0-0.228,0.08-0.419,0.241-0.571c0.161-0.152,0.353-0.229,0.577-0.229c0.229,0,0.424,0.079,0.584,0.235
			c0.161,0.153,0.242,0.341,0.242,0.565c0,0.225-0.079,0.415-0.235,0.572c-0.157,0.156-0.356,0.234-0.597,0.234
			c-0.228,0-0.421-0.078-0.578-0.234C384.948,104.548,384.87,104.358,384.87,104.133z M384.87,109.846
			c0-0.228,0.078-0.421,0.234-0.577c0.157-0.157,0.352-0.235,0.584-0.235c0.237,0,0.434,0.08,0.591,0.241
			c0.156,0.156,0.235,0.347,0.235,0.571c0,0.22-0.079,0.411-0.235,0.571c-0.157,0.157-0.356,0.235-0.597,0.235
			c-0.233,0-0.427-0.078-0.584-0.235C384.946,110.257,384.87,110.066,384.87,109.846z M388.424,109.167
			c0.542,0.313,1.126,0.47,1.752,0.47c0.88,0,1.562-0.347,2.044-1.041c0.487-0.694,0.73-1.68,0.73-2.958
			c-0.008,0.008-0.017,0.008-0.025,0c-0.432,0.821-1.158,1.231-2.177,1.231c-0.826,0-1.509-0.283-2.051-0.85
			c-0.541-0.568-0.812-1.304-0.812-2.209c0-0.965,0.296-1.757,0.888-2.374c0.593-0.623,1.361-0.934,2.305-0.934
			c0.977,0,1.741,0.386,2.291,1.156c0.55,0.766,0.825,1.883,0.825,3.351c0,1.816-0.355,3.212-1.066,4.19
			c-0.711,0.977-1.695,1.466-2.952,1.466c-0.69,0-1.273-0.112-1.752-0.336V109.167z M389.142,103.651
			c0,0.66,0.169,1.185,0.507,1.574c0.339,0.385,0.807,0.578,1.403,0.578c0.517,0,0.95-0.176,1.302-0.527
			c0.351-0.356,0.526-0.785,0.526-1.289c0-0.706-0.175-1.29-0.526-1.752c-0.347-0.465-0.807-0.698-1.378-0.698
			c-0.529,0-0.967,0.201-1.314,0.603C389.315,102.542,389.142,103.046,389.142,103.651z M396.054,109.167
			c0.542,0.313,1.126,0.47,1.752,0.47c0.88,0,1.562-0.347,2.044-1.041c0.487-0.694,0.73-1.68,0.73-2.958
			c-0.008,0.008-0.017,0.008-0.025,0c-0.432,0.821-1.158,1.231-2.178,1.231c-0.825,0-1.508-0.283-2.05-0.85
			c-0.542-0.568-0.812-1.304-0.812-2.209c0-0.965,0.296-1.757,0.888-2.374c0.593-0.623,1.361-0.934,2.305-0.934
			c0.977,0,1.741,0.386,2.291,1.156c0.55,0.766,0.825,1.883,0.825,3.351c0,1.816-0.355,3.212-1.066,4.19
			c-0.711,0.977-1.695,1.466-2.952,1.466c-0.69,0-1.274-0.112-1.752-0.336V109.167z M396.771,103.651c0,0.66,0.17,1.185,0.508,1.574
			c0.339,0.385,0.806,0.578,1.403,0.578c0.516,0,0.95-0.176,1.301-0.527c0.352-0.356,0.527-0.785,0.527-1.289
			c0-0.706-0.175-1.29-0.527-1.752c-0.347-0.465-0.806-0.698-1.377-0.698c-0.529,0-0.967,0.201-1.314,0.603
			C396.945,102.542,396.771,103.046,396.771,103.651z M403.684,109.167c0.542,0.313,1.126,0.47,1.752,0.47
			c0.88,0,1.562-0.347,2.044-1.041c0.487-0.694,0.73-1.68,0.73-2.958c-0.009,0.008-0.017,0.008-0.025,0
			c-0.432,0.821-1.158,1.231-2.178,1.231c-0.825,0-1.508-0.283-2.05-0.85c-0.542-0.568-0.812-1.304-0.812-2.209
			c0-0.965,0.296-1.757,0.888-2.374c0.593-0.623,1.361-0.934,2.304-0.934c0.978,0,1.742,0.386,2.292,1.156
			c0.55,0.766,0.825,1.883,0.825,3.351c0,1.816-0.355,3.212-1.066,4.19c-0.711,0.977-1.695,1.466-2.952,1.466
			c-0.69,0-1.274-0.112-1.752-0.336V109.167z M404.401,103.651c0,0.66,0.17,1.185,0.508,1.574c0.339,0.385,0.806,0.578,1.403,0.578
			c0.516,0,0.95-0.176,1.301-0.527c0.352-0.356,0.527-0.785,0.527-1.289c0-0.706-0.175-1.29-0.527-1.752
			c-0.347-0.465-0.806-0.698-1.377-0.698c-0.529,0-0.967,0.201-1.314,0.603C404.575,102.542,404.401,103.046,404.401,103.651z
			 M411.314,109.167c0.542,0.313,1.126,0.47,1.752,0.47c0.88,0,1.561-0.347,2.044-1.041c0.487-0.694,0.73-1.68,0.73-2.958
			c-0.009,0.008-0.017,0.008-0.026,0c-0.431,0.821-1.157,1.231-2.177,1.231c-0.825,0-1.508-0.283-2.05-0.85
			c-0.542-0.568-0.813-1.304-0.813-2.209c0-0.965,0.297-1.757,0.889-2.374c0.593-0.623,1.361-0.934,2.304-0.934
			c0.978,0,1.742,0.386,2.292,1.156c0.55,0.766,0.825,1.883,0.825,3.351c0,1.816-0.355,3.212-1.066,4.19
			c-0.711,0.977-1.695,1.466-2.952,1.466c-0.69,0-1.274-0.112-1.752-0.336V109.167z M412.031,103.651c0,0.66,0.17,1.185,0.508,1.574
			c0.339,0.385,0.806,0.578,1.403,0.578c0.516,0,0.95-0.176,1.301-0.527c0.351-0.356,0.527-0.785,0.527-1.289
			c0-0.706-0.176-1.29-0.527-1.752c-0.347-0.465-0.806-0.698-1.377-0.698c-0.529,0-0.967,0.201-1.314,0.603
			C412.205,102.542,412.031,103.046,412.031,103.651z M427.431,107.574v-7.249h5.992v7.338h-0.94v-0.394h-4.113v0.305H427.431z
			 M421.832,106.139c0.931-1.015,1.667-2.196,2.209-3.542h-2.019v-0.838h2.133v-1.942h0.914v1.942h1.79v0.838h-1.79v1.206
			l0.407-0.393c0.617,0.474,1.159,0.939,1.625,1.396l-0.673,0.673c-0.415-0.499-0.868-0.944-1.359-1.333v3.466h-0.914v-3.415
			c-0.55,1.125-1.18,2.107-1.891,2.945C422.145,106.778,422.001,106.444,421.832,106.139z M425.107,108.056h0.965v2.222
			c0,0.525,0.275,0.787,0.825,0.787h2.501c0.593,0,0.94-0.241,1.041-0.724c0.077-0.313,0.157-0.77,0.242-1.371
			c0.287,0.119,0.622,0.246,1.003,0.381c-0.119,0.601-0.233,1.083-0.343,1.447c-0.22,0.771-0.792,1.156-1.714,1.156h-2.958
			c-1.041,0-1.562-0.529-1.562-1.587V108.056z M428.37,106.406h4.113V105.2h-4.113V106.406z M428.37,101.188v1.193h4.113v-1.193
			H428.37z M428.37,104.387h4.113v-1.193h-4.113V104.387z M423.076,108.208l0.952,0.331c-0.397,1.142-0.816,2.103-1.257,2.881
			c-0.22-0.118-0.524-0.27-0.914-0.457C422.348,110.185,422.755,109.266,423.076,108.208z M431.963,108.678l0.762-0.533
			c0.397,0.482,0.973,1.231,1.726,2.247l-0.889,0.597C433.029,110.159,432.496,109.389,431.963,108.678z M426.923,108.323
			l0.609-0.635c0.584,0.457,1.177,0.956,1.778,1.498l-0.711,0.736C428.023,109.313,427.465,108.78,426.923,108.323z
			 M438.374,107.675h4.266v-1.764h-3.695v-0.902c0.517-0.901,0.986-1.857,1.409-2.869h-1.828v-0.889h2.184
			c0.203-0.533,0.394-1.079,0.571-1.637l1.067,0.229c-0.182,0.478-0.369,0.948-0.559,1.409h5.192v0.889h-5.56
			c-0.432,1.007-0.876,1.968-1.333,2.882h2.552v-2.196h1.015v2.196h3.25v0.889h-3.25v1.764h3.606v0.889h-3.606v2.095h-1.015v-2.095
			h-4.266V107.675z M439.999,110.938l2.603,0.063l4.849-0.114c-0.144,0.339-0.283,0.665-0.419,0.978l-4.405,0.051l-2.742-0.064
			c-1.363-0.017-2.383-0.499-3.06-1.447c-0.245,0.194-0.74,0.736-1.485,1.625l-0.546-1.079c0.529-0.479,1.054-0.94,1.574-1.384
			v-4.431h-1.447v-0.927h2.437v5.542C437.976,110.504,438.856,110.9,439.999,110.938z M436.355,99.931
			c0.584,0.736,1.147,1.494,1.689,2.273l-0.901,0.634c-0.5-0.795-1.033-1.582-1.6-2.361L436.355,99.931z M451.272,111.243
			c1.651-0.242,2.994-0.639,4.031-1.194c-0.791-0.355-1.64-0.728-2.545-1.117c0.364-0.47,0.7-0.939,1.009-1.409h-2.088v-0.851h2.621
			c0.271-0.457,0.519-0.914,0.743-1.371l0.939,0.394c-0.203,0.338-0.404,0.664-0.603,0.977h4.882v0.851h-1.67
			c-0.334,0.931-0.829,1.716-1.485,2.355c1.079,0.448,2.126,0.895,3.142,1.339l-0.559,0.94c-0.952-0.504-2.073-1.054-3.364-1.651
			c-1.134,0.771-2.657,1.338-4.57,1.702C451.636,111.928,451.476,111.607,451.272,111.243z M447.819,106.507
			c0.601-0.165,1.185-0.332,1.752-0.501v-2.901h-1.599v-0.914h1.599v-2.374h0.94v2.374h1.46v0.914h-1.46v2.609
			c0.402-0.127,0.795-0.256,1.18-0.387c0.009,0.381,0.034,0.711,0.077,0.99c-0.436,0.14-0.855,0.277-1.257,0.412v3.917
			c0,0.914-0.411,1.375-1.232,1.384c-0.313,0.008-0.711,0.004-1.193-0.013c-0.034-0.347-0.085-0.698-0.152-1.054
			c0.507,0.051,0.867,0.077,1.079,0.077c0.372,0,0.558-0.225,0.558-0.673v-3.326c-0.579,0.194-1.121,0.38-1.625,0.558
			L447.819,106.507z M451.717,104.26h4.945c0.537-0.745,1.013-1.443,1.428-2.094l0.952,0.52c-0.44,0.529-0.887,1.054-1.339,1.574
			h2.647v0.851h-8.633V104.26z M452.212,101.175h3.586c-0.199-0.385-0.408-0.766-0.628-1.142l0.851-0.394
			c0.27,0.457,0.528,0.918,0.774,1.384l-0.324,0.152h3.574v0.851h-7.833V101.175z M454.078,108.653
			c0.707,0.279,1.399,0.558,2.076,0.838c0.664-0.538,1.136-1.194,1.415-1.968h-2.736
			C454.575,107.917,454.324,108.293,454.078,108.653z M453.354,102.673l0.737-0.495c0.398,0.466,0.783,0.957,1.155,1.473
			l-0.812,0.546C454.112,103.672,453.752,103.164,453.354,102.673z M466.418,102.127c0.677,0.999,1.312,2.04,1.904,3.123
			c-0.321,0.153-0.647,0.322-0.977,0.508c-0.148-0.313-0.301-0.622-0.457-0.926c-1.824,0.177-3.555,0.351-5.193,0.52l-0.457-1.054
			c0.491-0.262,0.914-0.681,1.27-1.256c0.326-0.491,0.645-1.042,0.958-1.651h-2.367v-0.939h7.287v0.939h-3.72
			c-0.631,1.071-1.27,2.044-1.917,2.92c1.206-0.089,2.433-0.199,3.682-0.33c-0.28-0.487-0.572-0.961-0.876-1.422L466.418,102.127z
			 M461.188,106.977h2.983v-1.574h1.016v1.574h2.907v0.94h-2.907v2.234c0.998-0.127,2.027-0.262,3.084-0.406
			c0,0.296,0.017,0.626,0.051,0.99c-2.395,0.296-4.803,0.622-7.223,0.977l-0.292-1.066c1.079-0.11,2.2-0.235,3.364-0.375v-2.354
			h-2.983V106.977z M471.826,99.69h1.054v10.74c0,1.058-0.512,1.587-1.536,1.587c-0.347,0-0.965-0.004-1.854-0.013
			c-0.051-0.347-0.114-0.727-0.19-1.142c0.745,0.068,1.32,0.101,1.726,0.101c0.534,0.009,0.8-0.266,0.8-0.825V99.69z
			 M469.071,101.061h1.029v8.087h-1.029V101.061z M486.248,110.5h-1.269v-4.431h-4.977v4.431h-1.27v-9.833h1.27v4.272h4.977v-4.272
			h1.269V110.5z M491.002,101.74h-0.945v7.687h0.945v1.073h-3.161v-1.073h0.946v-7.687h-0.946v-1.073h3.161V101.74z M492.608,110.5
			v-9.833h2.806c1.49,0,2.727,0.434,3.713,1.302c0.991,0.867,1.486,2.031,1.486,3.491c0,1.523-0.495,2.744-1.486,3.663
			c-0.986,0.918-2.257,1.377-3.815,1.377H492.608z M493.878,101.797v7.579h1.428c1.249,0,2.222-0.34,2.92-1.022
			c0.703-0.681,1.054-1.635,1.054-2.862c0-1.228-0.36-2.15-1.079-2.768c-0.72-0.618-1.666-0.927-2.838-0.927H493.878z
			 M509.62,106.203v-0.876h6.919v0.876c-0.669,1.468-1.494,2.619-2.476,3.453c1.08,0.711,2.379,1.206,3.898,1.485
			c-0.296,0.381-0.554,0.724-0.774,1.028c-1.511-0.435-2.827-1.068-3.949-1.898c-1.151,0.779-2.606,1.446-4.367,2
			c-0.22-0.313-0.44-0.618-0.66-0.914c1.68-0.453,3.085-1.031,4.215-1.733c-0.982-0.948-1.695-2.088-2.139-3.421H509.62z
			 M514.952,101.251h-3.174v0.369c0,1.557-0.711,2.716-2.132,3.478c-0.229-0.279-0.474-0.542-0.737-0.787
			c1.253-0.643,1.879-1.532,1.879-2.666v-1.333h5.154v2.59c0,0.381,0.195,0.571,0.584,0.571h1.397
			c-0.042,0.347-0.076,0.66-0.102,0.94h-1.675c-0.796,0-1.194-0.441-1.194-1.321V101.251z M509.658,108.412
			c0.017,0.397,0.047,0.774,0.089,1.13c-1.159,0.753-2.023,1.358-2.59,1.815l-0.609-0.838c0.288-0.279,0.431-0.66,0.431-1.143
			v-4.519h-1.612v-0.914h2.577v5.637C508.494,109.216,509.066,108.826,509.658,108.412z M507.094,100.083
			c0.651,0.644,1.274,1.295,1.866,1.956l-0.889,0.736c-0.618-0.796-1.197-1.473-1.739-2.031L507.094,100.083z M511.245,106.203
			c0.428,1.079,1.098,2.029,2.012,2.85c0.897-0.694,1.615-1.644,2.152-2.85H511.245z M520.068,106.241h9.039v5.916h-0.914v-0.559
			h-7.211v0.559h-0.914V106.241z M521.884,99.525l0.952,0.406c-0.186,0.309-0.387,0.614-0.603,0.914h6.874v0.851
			c-0.782,0.943-1.836,1.767-3.161,2.469c1.401,0.47,3.073,0.755,5.015,0.857c-0.279,0.398-0.516,0.753-0.711,1.066
			c-2.188-0.262-4.022-0.713-5.503-1.352c-1.68,0.72-3.71,1.285-6.088,1.695c-0.152-0.296-0.33-0.601-0.533-0.914
			c2.099-0.305,3.927-0.755,5.484-1.352c-0.998-0.58-1.783-1.269-2.355-2.069c-0.63,0.723-1.343,1.419-2.139,2.088
			c-0.228-0.254-0.461-0.487-0.698-0.698C519.933,102.267,521.088,100.947,521.884,99.525z M527.749,101.683h-5.694
			c0.681,0.813,1.577,1.481,2.685,2.006C525.934,103.122,526.937,102.453,527.749,101.683z M520.982,108.564h3.149v-1.562h-3.149
			V108.564z M528.193,107.002h-3.148v1.562h3.148V107.002z M525.045,110.836h3.148v-1.548h-3.148V110.836z M520.982,110.836h3.149
			v-1.548h-3.149V110.836z"/>
		<path class="st1" d="M258,122h334c1.933,0,3.5,1.567,3.5,3.5v156c0,1.933-1.567,3.5-3.5,3.5H258c-1.933,0-3.5-1.567-3.5-3.5v-156
			C254.5,123.567,256.067,122,258,122z"/>
		<path class="st10" d="M258,122h334c1.933,0,3.5,1.567,3.5,3.5v156c0,1.933-1.567,3.5-3.5,3.5H258c-1.933,0-3.5-1.567-3.5-3.5v-156
			C254.5,123.567,256.067,122,258,122z"/>
		<path class="st2" d="M255,125.5c0-1.657,1.343-3,3-3h335c1.657,0,3,1.343,3,3v29H255V125.5z"/>
		<path class="st11" d="M273.062,133.486c0.641,0.766,1.2,1.465,1.676,2.098l-1.453,0.984c-0.562-0.929-1.074-1.668-1.535-2.214
			L273.062,133.486z M282.777,136.322c-0.148,0.633-0.246,1.114-0.293,1.442c-0.726,0.015-1.257,0.023-1.593,0.023
			c-0.883,0-1.325-0.418-1.325-1.254v-1.183h-2.004c-0.007,1.113-0.533,2.109-1.576,2.988h5.936v1.383
			c-0.551,1.086-1.225,2.017-2.022,2.795c0.868,0.41,1.846,0.701,2.936,0.873c-0.313,0.476-0.617,1.023-0.914,1.64
			c-1.27-0.3-2.406-0.765-3.41-1.394c-1.012,0.672-2.172,1.164-3.481,1.476c-0.203-0.492-0.508-1.004-0.914-1.535
			c1.133-0.246,2.123-0.584,2.971-1.014c-0.664-0.605-1.252-1.306-1.764-2.103l1.026-0.668h-1.26v-1.453h0.803
			c-0.309-0.356-0.709-0.77-1.202-1.242c0.844-0.594,1.266-1.399,1.266-2.414v-0.762h5.191v1.875c0,0.301,0.092,0.469,0.276,0.504
			C281.611,136.334,282.062,136.342,282.777,136.322z M278.494,141.672c0.672-0.539,1.201-1.166,1.588-1.881h-3.375
			C277.203,140.525,277.799,141.152,278.494,141.672z M274.984,140.588c0.063,0.594,0.176,1.191,0.34,1.793
			c-1.094,0.969-1.898,1.742-2.414,2.32l-0.855-1.254c0.164-0.218,0.25-0.523,0.257-0.914v-3.504h-1.136v-1.593h2.719v4.253
			C274.113,141.455,274.477,141.088,274.984,140.588z M293.629,134.412v1.207c-0.688,0.699-1.559,1.319-2.613,1.858
			c1.105,0.242,2.375,0.392,3.808,0.451c-0.273,0.554-0.5,1.054-0.679,1.5c-2.024-0.192-3.743-0.553-5.157-1.084
			c-1.261,0.449-2.705,0.822-4.33,1.119h8.842v5.59h-1.617v-0.457h-5.766v0.457H284.5v-5.561c-0.238,0.043-0.48,0.084-0.727,0.123
			c-0.179-0.429-0.382-0.894-0.609-1.394c1.508-0.203,2.84-0.455,3.996-0.756c-0.527-0.328-0.986-0.692-1.377-1.09
			c-0.492,0.414-1.006,0.783-1.541,1.107c-0.226-0.265-0.566-0.609-1.019-1.031c1.297-0.781,2.41-1.773,3.339-2.976l1.676,0.187
			c-0.183,0.258-0.371,0.508-0.562,0.75H293.629z M289.012,136.873c0.941-0.363,1.707-0.777,2.297-1.242h-4.342
			C287.51,136.123,288.191,136.537,289.012,136.873z M291.883,140.646h-2.121v0.844h2.121V140.646z M286.117,141.49h2.121v-0.844
			h-2.121V141.49z M289.762,143.412h2.121v-0.844h-2.121V143.412z M286.117,143.412h2.121v-0.844h-2.121V143.412z M297.121,145.053
			v-3.903c-0.398,0.133-0.809,0.262-1.23,0.387c-0.172-0.383-0.411-0.855-0.715-1.418c1.597-0.363,3.039-0.828,4.324-1.394
			c-0.566-0.43-1.043-0.77-1.43-1.02l1.149-1.055c0.648,0.422,1.279,0.842,1.892,1.26c0.914-0.523,1.729-1.115,2.444-1.775h-4.741
			c-0.707,0.773-1.537,1.484-2.49,2.133c-0.265-0.313-0.617-0.704-1.054-1.172c1.5-1.024,2.668-2.231,3.503-3.621l1.829,0.129
			c-0.192,0.371-0.405,0.73-0.639,1.078h5.783v1.418c-1.121,1.336-2.742,2.519-4.863,3.55h4.957v5.368h-1.688v-0.528h-5.343v0.563
			H297.121z M304.152,141.115h-5.343v1.91h5.343V141.115z M307.164,141.338c0.637-0.766,1.178-1.742,1.623-2.93h-1.506v-1.512h1.559
			v-1.318l-1.371,0.135c-0.078-0.68-0.137-1.145-0.176-1.395c1.578-0.148,2.969-0.308,4.172-0.48l0.269,1.394l-1.441,0.182v1.482
			h1.225c0.683-1.132,1.13-2.234,1.341-3.304l1.536,0.234c-0.11,0.406-0.229,0.801-0.358,1.184h4.529v1.359l-0.492,2.051
			l-1.453-0.305l0.422-1.711h-3.557c-0.316,0.711-0.681,1.379-1.095,2.004c-0.231-0.312-0.496-0.64-0.797-0.984v0.984h-1.301v0.621
			c0.484,0.282,0.984,0.59,1.5,0.926l-0.691,1.277c-0.274-0.238-0.543-0.464-0.809-0.679v4.441h-1.453v-3.709
			c-0.356,0.762-0.719,1.401-1.09,1.916C307.609,142.693,307.414,142.072,307.164,141.338z M315.812,137.189v6.059
			c0,0.496-0.087,0.873-0.263,1.131c-0.176,0.262-0.449,0.416-0.82,0.463c-0.372,0.051-0.983,0.07-1.834,0.058
			c-0.071-0.554-0.161-1.062-0.27-1.523c0.359,0.039,0.719,0.059,1.078,0.059c0.375,0,0.563-0.172,0.563-0.516v-5.731H315.812z
			 M311.031,142.533c0.571-1.304,1.028-2.57,1.371-3.797l1.395,0.399c-0.359,1.344-0.82,2.695-1.383,4.054
			C311.992,142.971,311.531,142.752,311.031,142.533z M317.559,138.76c0.289,0.812,0.707,2.144,1.253,3.996l-1.5,0.515
			c-0.367-1.562-0.734-2.937-1.101-4.125L317.559,138.76z"/>
		<path class="st1" d="M492.499,293.912h23c8.885,0,16.088,7.203,16.088,16.087l0,0c0,8.885-7.203,16.087-16.088,16.087h-23
			c-8.885,0-16.087-7.203-16.087-16.087l0,0C476.412,301.115,483.615,293.912,492.499,293.912z"/>
		<path class="st12" d="M492.499,293.912h23c8.885,0,16.088,7.203,16.088,16.087l0,0c0,8.885-7.203,16.087-16.088,16.087h-23
			c-8.885,0-16.087-7.203-16.087-16.087l0,0C476.412,301.115,483.615,293.912,492.499,293.912z"/>
		<path class="st11" d="M492.164,313.799c0.344-0.043,0.695-0.088,1.055-0.135v-7.248h-0.879v-0.82h5.742v0.41h5.121v0.738
			c-0.453,2.883-1.121,5.006-2.004,6.369c0.739,1.043,1.625,1.854,2.66,2.432c-0.218,0.226-0.457,0.516-0.714,0.867
			c-0.836-0.609-1.661-1.461-2.473-2.555c-0.789,1.036-1.727,1.934-2.813,2.696c-0.222-0.293-0.421-0.539-0.597-0.739v0.727h-0.879
			v-2.537c-1.426,0.223-2.789,0.443-4.09,0.662L492.164,313.799z M497.988,306.803v-0.387h-0.726v6.662
			c0.437-0.07,0.883-0.142,1.336-0.217c-0.024,0.321-0.036,0.59-0.036,0.809c-0.441,0.066-0.874,0.133-1.3,0.199v1.887
			c1.093-0.641,2.058-1.522,2.894-2.643c-0.902-1.437-1.482-3.541-1.74-6.31H497.988z M502.324,306.803h-3.058
			c0.183,2.285,0.66,4.125,1.429,5.519C501.375,311.178,501.918,309.338,502.324,306.803z M496.383,313.213v-1.711h-2.285v2.045
			C494.828,313.441,495.59,313.33,496.383,313.213z M494.098,310.752h2.285v-1.793h-2.285V310.752z M494.098,308.209h2.285v-1.793
			h-2.285V308.209z M508.711,316.506h-0.926v-8.192h3.211v-3.316h0.973v3.316h3.14v6.774c0,0.914-0.437,1.371-1.312,1.371
			c-0.508,0-1.184-0.012-2.027-0.035c-0.047-0.289-0.106-0.61-0.176-0.961c0.773,0.047,1.386,0.07,1.84,0.07
			c0.5,0,0.75-0.215,0.75-0.644v-1.114h-5.473V316.506z M508.711,312.932h5.473v-1.453h-5.473V312.932z M514.184,309.193h-5.473
			v1.442h5.473V309.193z M505.582,311.596c0.32,0.125,0.641,0.242,0.961,0.351c-0.383,1.555-0.742,3.063-1.078,4.524l-1.031-0.305
			C504.855,314.775,505.238,313.252,505.582,311.596z M512.906,307.318c0.594-0.601,1.153-1.265,1.676-1.992l0.844,0.645
			c-0.492,0.578-1.102,1.23-1.828,1.957L512.906,307.318z M504.75,308.209c0.586,0.414,1.273,0.945,2.062,1.594
			c-0.289,0.328-0.515,0.582-0.679,0.761c-0.883-0.789-1.539-1.347-1.969-1.675L504.75,308.209z M505.195,305.174
			c0.594,0.469,1.266,1.039,2.016,1.711c-0.266,0.273-0.496,0.515-0.691,0.726c-0.844-0.82-1.485-1.418-1.922-1.793L505.195,305.174
			z M507.621,305.865l0.68-0.539c0.359,0.328,0.957,0.965,1.793,1.91l-0.797,0.61C508.531,306.885,507.973,306.225,507.621,305.865z
			"/>
		<path class="st13" d="M556.5,293.5h23c9.113,0,16.5,7.387,16.5,16.5l0,0c0,9.113-7.387,16.5-16.5,16.5h-23
			c-9.113,0-16.5-7.387-16.5-16.5l0,0C540,300.887,547.387,293.5,556.5,293.5z"/>
		<path class="st11" d="M559.516,311.994h3.656v-1.113h-3.34v-1.254c0.367-0.617,0.717-1.297,1.049-2.039h-1.131v-1.383h1.705
			c0.156-0.398,0.307-0.812,0.451-1.242l1.699,0.258c-0.125,0.316-0.259,0.644-0.404,0.984h4.143v1.383h-4.77
			c-0.285,0.605-0.601,1.242-0.949,1.91h1.547v-1.488h1.57v1.488h2.508v1.383h-2.508v1.113h2.883v1.383h-2.883v1.312h-1.57v-1.312
			h-3.656V311.994z M557.922,305.197c0.594,0.766,1.121,1.485,1.582,2.157l-1.371,0.925c-0.469-0.812-0.957-1.582-1.465-2.308
			L557.922,305.197z M567.824,314.736l-0.515,1.559c-1.02,0.016-2.006,0.023-2.959,0.023c-2.149,0-3.409-0.031-3.78-0.093
			c-0.367-0.059-0.74-0.159-1.119-0.299c-0.375-0.141-0.752-0.385-1.131-0.733l-1.359,1.383l-0.668-1.781l1.172-0.996v-2.965h-1.09
			v-1.488H559v4.476c0.609,0.672,1.582,1.008,2.918,1.008C564.703,314.83,566.672,314.799,567.824,314.736z M579.449,307.389h-1.781
			l1.09,0.433l-0.738,0.985h1.792v1.312h-5.296l1.265,0.363l-0.328,0.586h4.242v1.313h-1.177c-0.254,0.707-0.635,1.332-1.143,1.875
			l2.273,0.937l-0.785,1.383c-0.972-0.5-1.873-0.945-2.701-1.336c-1.031,0.653-2.353,1.11-3.967,1.371
			c-0.203-0.437-0.449-0.902-0.738-1.394c1.203-0.141,2.215-0.385,3.035-0.733c-0.797-0.343-1.504-0.619-2.121-0.826
			c0.262-0.414,0.506-0.84,0.733-1.277h-1.213v-0.44c-0.27,0.039-0.551,0.086-0.844,0.141v2.912c0,0.453-0.1,0.803-0.299,1.049
			c-0.195,0.246-0.486,0.385-0.873,0.416c-0.383,0.035-0.832,0.059-1.348,0.07c-0.07-0.508-0.187-1.023-0.351-1.547
			c0.289,0.016,0.545,0.024,0.767,0.024c0.239,0,0.395-0.039,0.469-0.117c0.074-0.078,0.111-0.223,0.111-0.434v-2.086l-1.16,0.246
			l-0.187-1.676c0.375-0.043,0.824-0.101,1.347-0.175v-2.039h-1.16v-1.5h1.16v-2.168h1.524v2.168h0.996v1.5h-0.996v1.804
			l0.926-0.152c-0.012,0.25-0.018,0.48-0.018,0.691h1.775c0.133-0.308,0.26-0.625,0.381-0.949h-2.209v-1.312h1.664
			c-0.23-0.407-0.429-0.735-0.597-0.985l0.972-0.433h-1.629v-1.313h2.602c-0.113-0.289-0.23-0.562-0.352-0.82l1.758-0.293
			c0.137,0.328,0.272,0.699,0.405,1.113h2.724V307.389z M575.371,308.49l-0.732,0.317h1.593c0.387-0.598,0.674-1.071,0.862-1.418
			h-2.485C574.832,307.689,575.086,308.057,575.371,308.49z M574.328,313.061l1.547,0.597c0.43-0.367,0.748-0.793,0.955-1.277
			h-2.115L574.328,313.061z"/>
		<path class="st8" d="M584.247,312.238c0.112-0.767,1.016-1.121,1.619-0.634l10.073,8.143c0.753,0.609,0.287,1.826-0.68,1.777
			l-3.495-0.179l2.825,6.246c0.227,0.502,0.005,1.094-0.498,1.322l-3.645,1.657c-0.516,0.235-1.124-0.007-1.339-0.532l-2.682-6.562
			l-2.329,2.219c-0.688,0.655-1.816,0.072-1.679-0.868L584.247,312.238z"/>
		<path class="st11" d="M585.866,311.604l0.314-0.389l0,0L585.866,311.604z M584.247,312.238l-0.494-0.072L584.247,312.238z
			 M595.939,319.747l-0.315,0.389L595.939,319.747z M595.259,321.524l0.026-0.5L595.259,321.524z M591.764,321.345l0.025-0.499
			c-0.174-0.009-0.34,0.073-0.439,0.217c-0.098,0.144-0.114,0.329-0.042,0.488L591.764,321.345z M594.589,327.591l0.455-0.206
			L594.589,327.591z M594.091,328.913l-0.206-0.455L594.091,328.913z M590.446,330.57l0.207,0.455l0,0L590.446,330.57z
			 M589.107,330.038l0.463-0.189L589.107,330.038z M586.425,323.476l0.463-0.189c-0.063-0.153-0.197-0.265-0.358-0.299
			c-0.162-0.035-0.33,0.012-0.45,0.126L586.425,323.476z M584.096,325.695l-0.345-0.362l0,0L584.096,325.695z M582.417,324.827
			l0.494,0.072L582.417,324.827z M586.18,311.215c-0.904-0.731-2.26-0.2-2.427,0.951l0.989,0.144
			c0.056-0.384,0.508-0.561,0.809-0.317L586.18,311.215z M596.253,319.358l-10.073-8.143l-0.629,0.778l10.073,8.143L596.253,319.358
			z M595.234,322.023c1.45,0.074,2.149-1.751,1.019-2.665l-0.629,0.778c0.377,0.305,0.144,0.913-0.339,0.888L595.234,322.023z
			 M591.738,321.844l3.496,0.179l0.051-0.999l-3.496-0.178L591.738,321.844z M591.308,321.551l2.825,6.246l0.911-0.412l-2.825-6.246
			L591.308,321.551z M594.133,327.797c0.114,0.251,0.003,0.547-0.248,0.661l0.413,0.91c0.754-0.342,1.087-1.23,0.746-1.983
			L594.133,327.797z M593.885,328.458l-3.646,1.657l0.414,0.91l3.645-1.657L593.885,328.458z M590.239,330.115
			c-0.258,0.117-0.562-0.004-0.669-0.266l-0.926,0.378c0.322,0.788,1.234,1.15,2.009,0.798L590.239,330.115z M589.57,329.849
			l-2.682-6.562l-0.926,0.379l2.682,6.561L589.57,329.849z M584.441,326.057l2.329-2.219l-0.69-0.724l-2.329,2.219L584.441,326.057z
			 M581.922,324.755c-0.205,1.41,1.487,2.284,2.519,1.302l-0.69-0.724c-0.344,0.327-0.908,0.036-0.84-0.434L581.922,324.755z
			 M583.753,312.166l-1.831,12.589l0.989,0.144l1.831-12.589L583.753,312.166z"/>
		<path class="st8" d="M332.843,140.857c0.111-0.767,1.015-1.121,1.618-0.634l10.073,8.143c0.753,0.609,0.288,1.826-0.68,1.777
			l-3.495-0.179l2.825,6.246c0.228,0.502,0.005,1.094-0.497,1.322l-3.645,1.657c-0.517,0.235-1.125-0.007-1.34-0.532l-2.682-6.562
			l-2.329,2.218c-0.688,0.656-1.816,0.073-1.679-0.868L332.843,140.857z"/>
		<path class="st11" d="M334.461,140.223l0.314-0.389l0,0L334.461,140.223z M332.843,140.857l-0.495-0.072L332.843,140.857z
			 M344.534,148.366l-0.314,0.389L344.534,148.366z M343.854,150.143l0.026-0.5L343.854,150.143z M340.359,149.964l0.026-0.499
			c-0.175-0.009-0.341,0.073-0.439,0.217c-0.098,0.144-0.114,0.329-0.043,0.488L340.359,149.964z M343.184,156.21l0.456-0.207
			L343.184,156.21z M342.687,157.532l-0.207-0.455L342.687,157.532z M339.042,159.189l0.207,0.455l0,0L339.042,159.189z
			 M337.702,158.657l0.463-0.189L337.702,158.657z M335.02,152.095l0.463-0.189c-0.062-0.153-0.196-0.265-0.358-0.3
			c-0.161-0.034-0.33,0.013-0.449,0.127L335.02,152.095z M332.691,154.313l-0.344-0.362l0,0L332.691,154.313z M331.012,153.445
			l0.495,0.072L331.012,153.445z M334.775,139.834c-0.904-0.731-2.26-0.2-2.427,0.951l0.99,0.144
			c0.055-0.384,0.507-0.561,0.809-0.317L334.775,139.834z M344.849,147.977l-10.074-8.143l-0.628,0.778l10.073,8.143
			L344.849,147.977z M343.829,150.642c1.451,0.074,2.149-1.751,1.02-2.665l-0.629,0.778c0.376,0.304,0.144,0.913-0.34,0.888
			L343.829,150.642z M340.333,150.463l3.496,0.179l0.051-0.999l-3.495-0.178L340.333,150.463z M339.903,150.17l2.826,6.246
			l0.911-0.413l-2.825-6.245L339.903,150.17z M342.729,156.416c0.113,0.251,0.002,0.547-0.249,0.661l0.414,0.91
			c0.753-0.342,1.087-1.23,0.746-1.984L342.729,156.416z M342.48,157.077l-3.645,1.657l0.414,0.91l3.645-1.657L342.48,157.077z
			 M338.835,158.734c-0.258,0.117-0.562-0.004-0.67-0.266l-0.925,0.378c0.322,0.788,1.234,1.15,2.009,0.798L338.835,158.734z
			 M338.165,158.468l-2.682-6.562l-0.925,0.378l2.682,6.562L338.165,158.468z M333.036,154.676l2.329-2.219l-0.689-0.724
			l-2.329,2.218L333.036,154.676z M330.517,153.373c-0.205,1.411,1.487,2.285,2.519,1.303l-0.689-0.725
			c-0.344,0.328-0.908,0.036-0.84-0.434L330.517,153.373z M332.348,140.785l-1.831,12.588l0.99,0.144l1.831-12.588L332.348,140.785z
			"/>
		<path class="st14" d="M359,136.5h140c2.209,0,4,1.791,4,4v16c0,2.209-1.791,4-4,4H359c-2.209,0-4-1.791-4-4v-16
			C355,138.291,356.791,136.5,359,136.5z"/>
		<path class="st11" d="M361.383,143.475h1.605c-0.129,0.277-0.263,0.546-0.404,0.808h2.912v1.067
			c0.465-0.575,0.836-1.2,1.113-1.875h1.618c-0.106,0.277-0.217,0.546-0.334,0.808h3.099v1.113h-1.986
			c0.25,0.215,0.486,0.434,0.709,0.657l-0.709,0.586h1.26v3.222h-4.078v0.703h4.628c-0.043,1.887-0.162,2.946-0.357,3.176
			c-0.191,0.231-0.4,0.422-0.627,0.574c-0.227,0.157-1.156,0.227-2.789,0.211c-0.102-0.461-0.234-0.941-0.398-1.441
			c1.039,0.047,1.572,0.07,1.599,0.07c0.266,0,0.471-0.045,0.615-0.134c0.149-0.09,0.239-0.206,0.27-0.346
			c0.031-0.145,0.062-0.426,0.094-0.844h-3.035v3.223h-1.606v-2.889c-1,1.129-2.414,2.068-4.242,2.818
			c-0.227-0.382-0.52-0.855-0.879-1.418c1.434-0.464,2.582-1.043,3.445-1.734h-2.765l0.562-3.234h3.879v-0.703h-4.02v-1.008
			c-0.093,0.086-0.187,0.168-0.281,0.246c-0.297-0.375-0.609-0.735-0.937-1.078C360.25,145.287,360.93,144.428,361.383,143.475z
			 M363.697,145.396c0.274,0.235,0.545,0.481,0.815,0.739l-0.621,0.504h2.425c-0.355-0.262-0.754-0.535-1.195-0.821
			c0.121-0.136,0.238-0.277,0.352-0.422H363.697z M362.367,145.771l0.487-0.375h-0.979c-0.32,0.45-0.674,0.864-1.061,1.243h2.42
			C362.98,146.373,362.691,146.084,362.367,145.771z M366.393,146.639h2.168c-0.266-0.282-0.573-0.578-0.92-0.891l0.416-0.352
			h-0.756C367.027,145.842,366.725,146.256,366.393,146.639z M368.684,148.596v-0.703h-2.496v0.703H368.684z M361.91,150.564h2.672
			v-0.703h-2.543L361.91,150.564z M378.041,153.5h-5.666v-1.506h1.893v-5.806l-1.946,0.439v-1.553l3.838-0.808v7.728h1.881V153.5z
			 M378.996,147.377h1.676v-3h1.64v3h1.934v-3.867h1.664v1.219h3.598v1.417h-3.598v1.231h4.547v1.441h-11.461V147.377z
			 M388.641,149.814l1.195,1.172c-2.383,2.227-5.734,3.602-10.055,4.125c-0.265-0.578-0.543-1.125-0.832-1.64
			c1.961-0.157,3.696-0.491,5.203-1.002v-3.381h1.641v2.713C386.898,151.262,387.848,150.6,388.641,149.814z M381.938,149.252
			l1.148,1.008c-0.953,0.906-1.965,1.73-3.035,2.472c-0.25-0.351-0.578-0.761-0.985-1.23
			C380.113,150.846,381.07,150.096,381.938,149.252z M397.594,151.941l-0.949,3.176h-1.383l0.674-3.176H397.594z M412.863,149.744
			c0.453,0.211,0.922,0.406,1.407,0.586c-0.137,0.887-0.26,1.453-0.37,1.699c-0.105,0.242-0.277,0.428-0.515,0.557
			c-0.239,0.129-0.537,0.193-0.897,0.193h-0.82c-0.93,0-1.395-0.519-1.395-1.558v-1.875h-0.884
			c-0.051,1.019-0.241,1.777-0.569,2.273c-0.328,0.492-0.816,0.938-1.465,1.336c-0.281-0.351-0.632-0.738-1.054-1.16
			c0.367-0.219,0.709-0.502,1.025-0.85c0.317-0.351,0.5-0.884,0.551-1.599h-1.67v-1.383h3.422v-1.301h-1.6
			c-0.148,0.379-0.295,0.723-0.439,1.031c-0.383-0.195-0.82-0.406-1.313-0.632c0.446-0.907,0.848-1.977,1.207-3.211l1.371,0.445
			l-0.322,0.984h1.096v-1.746h1.559v1.746h2.695v1.383h-2.695v1.301h3.128v1.383h-2.531v1.547c0,0.32,0.117,0.48,0.352,0.48h0.14
			c0.215,0,0.352-0.074,0.411-0.223C412.746,150.998,412.805,150.529,412.863,149.744z M404.625,143.697
			c0.586,0.766,1.113,1.485,1.582,2.157l-1.371,0.925c-0.477-0.812-0.965-1.582-1.465-2.308L404.625,143.697z M414.504,153.271
			c-0.203,0.625-0.367,1.149-0.492,1.571l-5.344-0.035c-1.676,0-2.891-0.371-3.645-1.114l-1.359,1.383l-0.668-1.781
			c0.422-0.352,0.813-0.686,1.172-1.002v-2.959h-1.09v-1.488h2.625v4.459c0.609,0.675,1.567,1.013,2.871,1.013l2.397,0.012
			C411.889,153.33,413.066,153.311,414.504,153.271z M414.961,145.619h1.266v-1.98h1.535v1.98h1.09v1.465h-1.09v1.822l1.136-0.228
			c-0.093,0.656-0.144,1.183-0.152,1.582l-0.984,0.181v3.018c0,0.477-0.094,0.838-0.282,1.084c-0.187,0.246-0.464,0.377-0.832,0.393
			l-1.382,0.058c-0.078-0.453-0.184-0.973-0.317-1.558c0.297,0.023,0.594,0.035,0.891,0.035c0.258,0,0.387-0.168,0.387-0.504v-2.221
			l-1.231,0.264l-0.094-1.676c0.395-0.039,0.836-0.094,1.325-0.164v-2.086h-1.266V145.619z M425.812,144.002v1.301
			c-0.503,0.722-1.128,1.361-1.874,1.916c0.777,0.273,1.636,0.451,2.578,0.533c-0.25,0.531-0.457,1.004-0.621,1.418
			c-1.29-0.227-2.42-0.582-3.393-1.066c-0.945,0.48-2.029,0.863-3.252,1.148c-0.164-0.43-0.371-0.883-0.621-1.359
			c0.926-0.188,1.746-0.414,2.461-0.68c-0.539-0.422-1.008-0.902-1.406-1.442l0.826-0.468h-1.401v-1.301H425.812z M422.514,146.551
			c0.632-0.367,1.131-0.783,1.494-1.248h-3.035C421.426,145.791,421.939,146.207,422.514,146.551z M418.395,151.865h3.293v-0.844
			h-2.708v-1.312h2.708v-0.773h1.582v0.773h2.707v1.312h-2.707v0.844h3.14v1.313h-3.14v1.898h-1.582v-1.898h-3.293V151.865z
			 M426.902,150.236h3.452c0.175-0.261,0.335-0.519,0.48-0.773h-3.357v-3.445h3.035v-0.809h-3.399v-1.242h11.18v1.242h-3.41v0.809
			h3.035v3.445h-5.379c-0.164,0.269-0.326,0.527-0.486,0.773h6.439v1.243h-2.238c-0.406,0.535-0.889,1.015-1.447,1.441l3.146,0.797
			l-0.715,1.429c-1.437-0.503-2.759-0.939-3.967-1.306c-1.476,0.687-3.31,1.123-5.501,1.306c-0.118-0.445-0.297-0.906-0.54-1.382
			c1.555-0.071,2.883-0.241,3.985-0.51c-1.02-0.274-1.938-0.486-2.754-0.639c0.351-0.383,0.678-0.761,0.978-1.136h-2.537V150.236z
			 M431.918,146.018h1.559v-0.809h-1.559V146.018z M431.918,148.268h1.559v-1.055h-1.559V148.268z M428.953,148.268h1.559v-1.055
			h-1.559V148.268z M436.441,148.268v-1.055h-1.558v1.055H436.441z M430.77,152.029c0.636,0.114,1.435,0.28,2.396,0.498
			c0.531-0.297,0.969-0.646,1.313-1.048h-3.282C431.053,151.674,430.91,151.857,430.77,152.029z M442.219,150.494h3.656v-1.113
			h-3.34v-1.254c0.367-0.617,0.717-1.297,1.049-2.039h-1.131v-1.383h1.705c0.156-0.398,0.307-0.812,0.451-1.242l1.7,0.258
			c-0.125,0.316-0.26,0.644-0.405,0.984h4.143v1.383h-4.77c-0.285,0.605-0.601,1.242-0.949,1.91h1.547v-1.488h1.57v1.488h2.508
			v1.383h-2.508v1.113h2.883v1.383h-2.883v1.312h-1.57v-1.312h-3.656V150.494z M440.625,143.697
			c0.594,0.766,1.121,1.485,1.582,2.157l-1.371,0.925c-0.469-0.812-0.957-1.582-1.465-2.308L440.625,143.697z M450.527,153.236
			l-0.515,1.559c-1.02,0.016-2.006,0.023-2.959,0.023c-2.149,0-3.408-0.031-3.78-0.093c-0.367-0.059-0.74-0.159-1.119-0.299
			c-0.375-0.141-0.752-0.385-1.131-0.733l-1.359,1.383l-0.668-1.781l1.172-0.996v-2.965h-1.09v-1.488h2.625v4.476
			c0.609,0.672,1.582,1.008,2.918,1.008C447.406,153.33,449.375,153.299,450.527,153.236z M462.152,145.889h-1.781l1.09,0.433
			l-0.738,0.985h1.793v1.312h-5.297l1.265,0.363l-0.328,0.586h4.242v1.313h-1.177c-0.254,0.707-0.635,1.332-1.143,1.875l2.274,0.937
			l-0.786,1.383c-0.972-0.5-1.873-0.945-2.701-1.336c-1.031,0.653-2.353,1.11-3.967,1.371c-0.203-0.437-0.449-0.902-0.738-1.394
			c1.203-0.141,2.215-0.385,3.035-0.733c-0.797-0.343-1.504-0.619-2.121-0.826c0.262-0.414,0.506-0.84,0.733-1.277h-1.213v-0.44
			c-0.27,0.039-0.551,0.086-0.844,0.141v2.912c0,0.453-0.1,0.803-0.299,1.049c-0.195,0.246-0.486,0.385-0.873,0.416
			c-0.383,0.035-0.832,0.059-1.348,0.07c-0.07-0.508-0.187-1.023-0.351-1.547c0.289,0.016,0.545,0.024,0.767,0.024
			c0.239,0,0.395-0.039,0.469-0.117c0.074-0.078,0.112-0.223,0.112-0.434v-2.086l-1.161,0.246l-0.187-1.676
			c0.375-0.043,0.824-0.101,1.348-0.175v-2.039h-1.161v-1.5h1.161v-2.168h1.523v2.168h0.996v1.5h-0.996v1.804l0.926-0.152
			c-0.012,0.25-0.018,0.48-0.018,0.691h1.776c0.132-0.308,0.259-0.625,0.38-0.949h-2.209v-1.312h1.665
			c-0.231-0.407-0.43-0.735-0.598-0.985l0.973-0.433h-1.629v-1.313h2.601c-0.113-0.289-0.23-0.562-0.351-0.82l1.757-0.293
			c0.137,0.328,0.272,0.699,0.405,1.113h2.724V145.889z M458.074,146.99l-0.732,0.317h1.594c0.386-0.598,0.673-1.071,0.861-1.418
			h-2.485C457.535,146.189,457.789,146.557,458.074,146.99z M457.031,151.561l1.547,0.597c0.43-0.367,0.748-0.793,0.955-1.277
			h-2.115L457.031,151.561z M465.047,143.557l1.746,0.269l-0.527,1.594h1.992v2.285c0.629-1.055,1.23-2.445,1.804-4.172l1.618,0.422
			c-0.172,0.52-0.356,1.027-0.551,1.524h3.023l-0.134,6.744c-0.02,0.726-0.08,1.234-0.182,1.523
			c-0.102,0.293-0.26,0.531-0.475,0.715s-0.515,0.309-0.902,0.375c-0.383,0.066-1.221,0.1-2.514,0.1
			c-0.117-0.688-0.265-1.278-0.445-1.77c0.578,0.047,1.193,0.07,1.846,0.07c0.187,0,0.349-0.021,0.486-0.064
			s0.248-0.108,0.334-0.193c0.09-0.09,0.15-0.19,0.182-0.299c0.031-0.11,0.056-0.59,0.076-1.442l0.053-2.396
			c0.015-0.746,0.023-1.352,0.023-1.817h-2.039c-0.258,0.547-0.531,1.079-0.82,1.594c-0.371-0.242-0.832-0.482-1.383-0.721v6.979
			h-1.629v-0.844h-1.664v0.914h-1.629v-9.527h1.236C464.799,144.654,464.957,144.033,465.047,143.557z M466.629,146.955h-1.664
			v2.004h1.664V146.955z M464.965,152.498h1.664v-2.004h-1.664V152.498z M470.098,148.432c0.562,0.672,1.168,1.488,1.816,2.449
			l-1.476,0.984c-0.594-0.976-1.161-1.808-1.7-2.496L470.098,148.432z M476.766,143.486c0.64,0.766,1.199,1.465,1.675,2.098
			l-1.453,0.984c-0.562-0.929-1.074-1.668-1.535-2.214L476.766,143.486z M486.48,146.322c-0.148,0.633-0.246,1.114-0.292,1.442
			c-0.727,0.015-1.258,0.023-1.594,0.023c-0.883,0-1.324-0.418-1.324-1.254v-1.183h-2.004c-0.008,1.113-0.534,2.109-1.577,2.988
			h5.936v1.383c-0.551,1.086-1.225,2.017-2.021,2.795c0.867,0.41,1.845,0.701,2.935,0.873c-0.312,0.476-0.617,1.023-0.914,1.64
			c-1.27-0.3-2.406-0.765-3.41-1.394c-1.012,0.672-2.172,1.164-3.481,1.476c-0.203-0.492-0.507-1.004-0.914-1.535
			c1.133-0.246,2.123-0.584,2.971-1.014c-0.664-0.605-1.252-1.306-1.764-2.103l1.026-0.668h-1.26v-1.453h0.803
			c-0.309-0.356-0.709-0.77-1.201-1.242c0.843-0.594,1.265-1.399,1.265-2.414v-0.762h5.192v1.875c0,0.301,0.091,0.469,0.275,0.504
			C485.314,146.334,485.766,146.342,486.48,146.322z M482.197,151.672c0.672-0.539,1.201-1.166,1.588-1.881h-3.375
			C480.906,150.525,481.502,151.152,482.197,151.672z M478.688,150.588c0.062,0.594,0.175,1.191,0.339,1.793
			c-1.093,0.969-1.898,1.742-2.414,2.32l-0.855-1.254c0.164-0.218,0.25-0.523,0.258-0.914v-3.504h-1.137v-1.593h2.719v4.253
			C477.816,151.455,478.18,151.088,478.688,150.588z M497.332,144.412v1.207c-0.687,0.699-1.559,1.319-2.613,1.858
			c1.105,0.242,2.375,0.392,3.808,0.451c-0.273,0.554-0.5,1.054-0.679,1.5c-2.024-0.192-3.743-0.553-5.157-1.084
			c-1.261,0.449-2.705,0.822-4.33,1.119h8.842v5.59h-1.617v-0.457h-5.766v0.457h-1.617v-5.561c-0.238,0.043-0.48,0.084-0.726,0.123
			c-0.18-0.429-0.383-0.894-0.61-1.394c1.508-0.203,2.84-0.455,3.996-0.756c-0.527-0.328-0.986-0.692-1.377-1.09
			c-0.492,0.414-1.006,0.783-1.541,1.107c-0.226-0.265-0.566-0.609-1.019-1.031c1.297-0.781,2.41-1.773,3.34-2.976l1.675,0.187
			c-0.183,0.258-0.371,0.508-0.562,0.75H497.332z M492.715,146.873c0.941-0.363,1.707-0.777,2.297-1.242h-4.342
			C491.213,146.123,491.895,146.537,492.715,146.873z M495.586,150.646h-2.121v0.844h2.121V150.646z M489.82,151.49h2.121v-0.844
			h-2.121V151.49z M493.465,153.412h2.121v-0.844h-2.121V153.412z M489.82,153.412h2.121v-0.844h-2.121V153.412z"/>
		<path class="st14" d="M499,264.5h92c2.209,0,4,1.791,4,4v16c0,2.209-1.791,4-4,4h-92c-2.209,0-4-1.791-4-4v-16
			C495,266.291,496.791,264.5,499,264.5z"/>
		<path class="st11" d="M501.383,271.475h1.605c-0.129,0.277-0.263,0.546-0.404,0.808h2.912v1.067
			c0.465-0.575,0.836-1.2,1.113-1.875h1.618c-0.106,0.277-0.217,0.546-0.334,0.808h3.099v1.113h-1.986
			c0.25,0.215,0.486,0.434,0.709,0.657l-0.709,0.586h1.26v3.222h-4.078v0.703h4.628c-0.043,1.887-0.162,2.946-0.357,3.176
			c-0.191,0.231-0.4,0.422-0.627,0.574c-0.227,0.157-1.156,0.227-2.789,0.211c-0.102-0.461-0.234-0.941-0.398-1.441
			c1.039,0.047,1.572,0.07,1.599,0.07c0.266,0,0.471-0.045,0.615-0.134c0.149-0.09,0.239-0.206,0.27-0.346
			c0.031-0.145,0.062-0.426,0.094-0.844h-3.035v3.223h-1.606v-2.889c-1,1.129-2.414,2.068-4.242,2.818
			c-0.227-0.382-0.52-0.855-0.879-1.418c1.434-0.464,2.582-1.043,3.445-1.734h-2.765l0.562-3.234h3.879v-0.703h-4.02v-1.008
			c-0.093,0.086-0.187,0.168-0.281,0.246c-0.297-0.375-0.609-0.735-0.937-1.078C500.25,273.287,500.93,272.428,501.383,271.475z
			 M503.697,273.396c0.274,0.235,0.545,0.481,0.815,0.739l-0.621,0.504h2.425c-0.355-0.262-0.754-0.535-1.195-0.821
			c0.121-0.136,0.238-0.277,0.352-0.422H503.697z M502.367,273.771l0.487-0.375h-0.979c-0.32,0.45-0.674,0.864-1.061,1.243h2.42
			C502.98,274.373,502.691,274.084,502.367,273.771z M506.393,274.639h2.168c-0.266-0.282-0.573-0.578-0.92-0.891l0.416-0.352
			h-0.756C507.027,273.842,506.725,274.256,506.393,274.639z M508.684,276.596v-0.703h-2.496v0.703H508.684z M501.91,278.564h2.672
			v-0.703h-2.543L501.91,278.564z M517.9,281.5h-5.918v-1.488l2.608-2.502c0.547-0.524,0.93-0.963,1.148-1.319
			c0.219-0.355,0.328-0.724,0.328-1.107c0-0.863-0.462-1.295-1.388-1.295c-0.778,0-1.53,0.313-2.256,0.938v-1.682
			c0.777-0.516,1.66-0.774,2.648-0.774c0.895,0,1.604,0.229,2.127,0.686c0.524,0.453,0.785,1.082,0.785,1.887
			c0,1.062-0.644,2.176-1.933,3.34l-1.893,1.705v0.035h3.744V281.5z M518.996,275.377h1.676v-3h1.64v3h1.934v-3.867h1.664v1.219
			h3.598v1.417h-3.598v1.231h4.547v1.441h-11.461V275.377z M528.641,277.814l1.195,1.172c-2.383,2.227-5.734,3.602-10.055,4.125
			c-0.265-0.578-0.543-1.125-0.832-1.64c1.961-0.157,3.696-0.491,5.203-1.002v-3.381h1.641v2.713
			C526.898,279.262,527.848,278.6,528.641,277.814z M521.938,277.252l1.148,1.008c-0.953,0.906-1.965,1.73-3.035,2.472
			c-0.25-0.351-0.578-0.761-0.985-1.23C520.113,278.846,521.07,278.096,521.938,277.252z M537.594,279.941l-0.949,3.176h-1.383
			l0.674-3.176H537.594z M543.84,273.244h2.144c-0.269-0.387-0.546-0.762-0.832-1.125l1.407-0.633l1.218,1.43l-0.738,0.328h2.356
			c0.468-0.601,0.89-1.195,1.265-1.781l1.77,0.633c-0.274,0.293-0.623,0.675-1.049,1.148h2.209v5.824h-4.055v0.809h4.957v1.441
			h-4.957v1.746h-1.64v-1.746h-4.981v-1.441h4.981v-0.809h-4.055V273.244z M552.043,274.604h-2.508v0.949h2.508V274.604z
			 M545.387,275.553h2.508v-0.949h-2.508V275.553z M552.043,277.709v-0.949h-2.508v0.949H552.043z M545.387,277.709h2.508v-0.949
			h-2.508V277.709z M563.797,283.041v-0.586h-7.828v-3.937h1.664v2.39h2.215v-3.176h-4.887v-1.57h4.887v-1.418h-4.207v-1.57h4.207
			v-1.653h1.711v1.653h4.253v1.57h-4.253v1.418h4.875v1.57h-4.875v3.176h2.238v-2.39h1.664v4.523H563.797z M570.219,278.494h3.656
			v-1.113h-3.34v-1.254c0.367-0.617,0.717-1.297,1.049-2.039h-1.131v-1.383h1.705c0.156-0.398,0.307-0.812,0.451-1.242l1.7,0.258
			c-0.125,0.316-0.26,0.644-0.405,0.984h4.143v1.383h-4.77c-0.285,0.605-0.601,1.242-0.949,1.91h1.547v-1.488h1.57v1.488h2.508
			v1.383h-2.508v1.113h2.883v1.383h-2.883v1.312h-1.57v-1.312h-3.656V278.494z M568.625,271.697
			c0.594,0.766,1.121,1.485,1.582,2.157l-1.371,0.925c-0.469-0.812-0.957-1.582-1.465-2.308L568.625,271.697z M578.527,281.236
			l-0.515,1.559c-1.02,0.016-2.006,0.023-2.959,0.023c-2.149,0-3.408-0.031-3.78-0.093c-0.367-0.059-0.74-0.159-1.119-0.299
			c-0.375-0.141-0.752-0.385-1.131-0.733l-1.359,1.383l-0.668-1.781l1.172-0.996v-2.965h-1.09v-1.488h2.625v4.476
			c0.609,0.672,1.582,1.008,2.918,1.008C575.406,281.33,577.375,281.299,578.527,281.236z M590.152,273.889h-1.781l1.09,0.433
			l-0.738,0.985h1.793v1.312h-5.297l1.265,0.363l-0.328,0.586h4.242v1.313h-1.177c-0.254,0.707-0.635,1.332-1.143,1.875l2.274,0.937
			l-0.786,1.383c-0.972-0.5-1.873-0.945-2.701-1.336c-1.031,0.653-2.353,1.11-3.967,1.371c-0.203-0.437-0.449-0.902-0.738-1.394
			c1.203-0.141,2.215-0.385,3.035-0.733c-0.797-0.343-1.504-0.619-2.121-0.826c0.262-0.414,0.506-0.84,0.733-1.277h-1.213v-0.44
			c-0.27,0.039-0.551,0.086-0.844,0.141v2.912c0,0.453-0.1,0.803-0.299,1.049c-0.195,0.246-0.486,0.385-0.873,0.416
			c-0.383,0.035-0.832,0.059-1.348,0.07c-0.07-0.508-0.187-1.023-0.351-1.547c0.289,0.016,0.545,0.024,0.767,0.024
			c0.239,0,0.395-0.039,0.469-0.117c0.074-0.078,0.112-0.223,0.112-0.434v-2.086l-1.161,0.246l-0.187-1.676
			c0.375-0.043,0.824-0.101,1.348-0.175v-2.039h-1.161v-1.5h1.161v-2.168h1.523v2.168h0.996v1.5h-0.996v1.804l0.926-0.152
			c-0.012,0.25-0.018,0.48-0.018,0.691h1.776c0.132-0.308,0.259-0.625,0.38-0.949h-2.209v-1.312h1.665
			c-0.231-0.407-0.43-0.735-0.598-0.985l0.973-0.433h-1.629v-1.313h2.601c-0.113-0.289-0.23-0.562-0.351-0.82l1.757-0.293
			c0.137,0.328,0.272,0.699,0.405,1.113h2.724V273.889z M586.074,274.99l-0.732,0.317h1.594c0.386-0.598,0.673-1.071,0.861-1.418
			h-2.485C585.535,274.189,585.789,274.557,586.074,274.99z M585.031,279.561l1.547,0.597c0.43-0.367,0.748-0.793,0.955-1.277
			h-2.115L585.031,279.561z"/>
		<path class="st15" d="M330.008,351.467h-2.619v8.033h-1.178v-8.033h-2.607v-1.043h6.404V351.467z M331.115,350.734
			c0-0.203,0.069-0.373,0.205-0.509c0.141-0.141,0.313-0.211,0.516-0.211c0.207,0,0.381,0.068,0.521,0.205
			c0.145,0.136,0.217,0.308,0.217,0.515c0,0.204-0.072,0.373-0.217,0.51c-0.14,0.133-0.314,0.199-0.521,0.199
			s-0.379-0.066-0.516-0.199C331.184,351.107,331.115,350.938,331.115,350.734z M331.25,359.5v-6.48h1.148v6.48H331.25z
			 M335.604,358.586v3.896h-1.149v-9.462h1.149v1.119h0.023c0.508-0.848,1.25-1.272,2.227-1.272c0.828,0,1.476,0.291,1.945,0.873
			c0.472,0.578,0.709,1.356,0.709,2.332c0,1.078-0.268,1.946-0.803,2.602c-0.531,0.652-1.248,0.978-2.15,0.978
			c-0.832,0-1.475-0.355-1.928-1.066H335.604z M335.598,356.828c0,0.527,0.17,0.973,0.509,1.336c0.34,0.359,0.766,0.539,1.278,0.539
			c0.609,0,1.086-0.234,1.429-0.703c0.344-0.469,0.516-1.117,0.516-1.945c0-0.7-0.16-1.246-0.48-1.641
			c-0.321-0.398-0.758-0.598-1.313-0.598c-0.566,0-1.031,0.202-1.394,0.604c-0.364,0.402-0.545,0.918-0.545,1.547V356.828z
			 M341.756,358.1c0.578,0.418,1.201,0.627,1.869,0.627c0.895,0,1.342-0.293,1.342-0.879c0-0.25-0.098-0.455-0.293-0.616
			c-0.195-0.164-0.592-0.357-1.19-0.58c-0.718-0.289-1.185-0.574-1.4-0.855c-0.215-0.285-0.322-0.629-0.322-1.031
			c0-0.575,0.242-1.034,0.726-1.377c0.489-0.348,1.088-0.522,1.799-0.522c0.551,0,1.063,0.096,1.535,0.287v1.108
			c-0.484-0.313-1.033-0.469-1.646-0.469c-0.367,0-0.666,0.08-0.897,0.24c-0.23,0.16-0.345,0.371-0.345,0.633
			c0,0.258,0.082,0.459,0.246,0.604c0.168,0.144,0.537,0.33,1.107,0.556c0.723,0.27,1.211,0.549,1.465,0.838
			c0.254,0.289,0.381,0.647,0.381,1.072c0,0.594-0.244,1.063-0.733,1.407c-0.484,0.339-1.113,0.509-1.886,0.509
			c-0.672,0-1.258-0.127-1.758-0.381V358.1z M352.66,352.879c0.207,0,0.385,0.072,0.533,0.217c0.149,0.144,0.223,0.318,0.223,0.521
			s-0.072,0.379-0.217,0.528c-0.144,0.144-0.324,0.216-0.539,0.216s-0.394-0.072-0.539-0.216c-0.144-0.149-0.217-0.325-0.217-0.528
			s0.075-0.377,0.223-0.521C352.275,352.951,352.453,352.879,352.66,352.879z M352.66,358.158c0.207,0,0.385,0.072,0.533,0.217
			c0.149,0.145,0.223,0.32,0.223,0.527c0,0.211-0.074,0.389-0.223,0.534c-0.148,0.14-0.326,0.21-0.533,0.21s-0.385-0.07-0.533-0.21
			c-0.148-0.145-0.223-0.323-0.223-0.534c0-0.207,0.075-0.382,0.223-0.527C352.275,358.23,352.453,358.158,352.66,358.158z
			 M365.117,350.928h4.617v9.609h-0.914v-0.914h-2.789v1.008h-0.914V350.928z M364.613,359.342l-0.726,0.773
			c-0.598-0.554-1.182-1.084-1.752-1.588c-0.758,0.993-1.682,1.834-2.772,2.526c-0.156-0.25-0.343-0.528-0.562-0.832
			c1.062-0.641,1.939-1.41,2.631-2.309c-0.696-0.598-1.366-1.152-2.01-1.664c0.328-1.082,0.617-2.211,0.867-3.387h-1.441v-0.89
			h1.623c0.156-0.789,0.295-1.598,0.416-2.426l0.984,0.141c-0.133,0.796-0.273,1.558-0.422,2.285h2.59v0.867
			c-0.23,2.129-0.685,3.766-1.365,4.91C363.287,358.244,363.934,358.775,364.613,359.342z M368.82,351.795h-2.789v6.984h2.789
			V351.795z M363.113,352.861h-1.857c-0.25,1.118-0.522,2.149-0.815,3.094c0.473,0.375,0.973,0.775,1.5,1.201
			C362.559,356.082,362.949,354.65,363.113,352.861z M374.832,355.533v-0.808h6.387v0.808c-0.617,1.356-1.379,2.418-2.285,3.188
			c0.996,0.656,2.195,1.113,3.597,1.371c-0.273,0.351-0.511,0.668-0.715,0.949c-1.394-0.402-2.609-0.986-3.644-1.752
			c-1.063,0.719-2.406,1.334-4.031,1.846c-0.203-0.289-0.407-0.571-0.61-0.844c1.551-0.418,2.848-0.951,3.891-1.6
			c-0.906-0.875-1.565-1.927-1.975-3.158H374.832z M379.754,350.963h-2.93v0.34c0,1.437-0.656,2.508-1.969,3.211
			c-0.21-0.258-0.437-0.5-0.679-0.727c1.156-0.594,1.734-1.414,1.734-2.461v-1.23h4.758v2.39c0,0.352,0.18,0.528,0.539,0.528h1.289
			c-0.039,0.32-0.07,0.609-0.094,0.867h-1.547c-0.734,0-1.101-0.406-1.101-1.219V350.963z M374.867,357.572
			c0.016,0.367,0.043,0.715,0.082,1.043c-1.07,0.696-1.867,1.254-2.39,1.676l-0.563-0.773c0.266-0.258,0.399-0.61,0.399-1.055
			v-4.172h-1.489v-0.844h2.379v5.203C373.793,358.314,374.32,357.955,374.867,357.572z M372.5,349.885
			c0.602,0.594,1.176,1.195,1.723,1.804l-0.821,0.68c-0.57-0.734-1.105-1.359-1.605-1.875L372.5,349.885z M376.332,355.533
			c0.395,0.996,1.014,1.873,1.857,2.631c0.829-0.641,1.491-1.518,1.987-2.631H376.332z M384.477,355.568h8.343v5.461h-0.843v-0.515
			h-6.657v0.515h-0.843V355.568z M386.152,349.369l0.879,0.375c-0.172,0.285-0.357,0.567-0.556,0.844h6.345v0.785
			c-0.722,0.871-1.695,1.631-2.918,2.279c1.293,0.434,2.836,0.698,4.629,0.791c-0.258,0.368-0.476,0.696-0.656,0.985
			c-2.02-0.242-3.713-0.658-5.08-1.248c-1.551,0.664-3.424,1.185-5.619,1.564c-0.141-0.273-0.305-0.555-0.492-0.844
			c1.937-0.281,3.625-0.697,5.062-1.248c-0.922-0.535-1.646-1.172-2.174-1.91c-0.582,0.668-1.24,1.311-1.974,1.928
			c-0.211-0.234-0.426-0.449-0.645-0.645C384.352,351.9,385.418,350.682,386.152,349.369z M391.566,351.361h-5.255
			c0.628,0.75,1.455,1.368,2.478,1.852C389.891,352.689,390.816,352.072,391.566,351.361z M385.32,357.713h2.907v-1.442h-2.907
			V357.713z M391.977,356.271h-2.907v1.442h2.907V356.271z M389.07,359.811h2.907v-1.43h-2.907V359.811z M385.32,359.811h2.907
			v-1.43h-2.907V359.811z M406.508,359.26c-0.219,0.265-0.438,0.554-0.656,0.867c-2.059-1.027-3.641-2.356-4.747-3.984v4.898h-0.914
			v-4.887c-1.187,1.575-2.773,2.946-4.757,4.114c-0.149-0.211-0.36-0.473-0.633-0.786c2.121-1.113,3.797-2.453,5.027-4.019h-4.84
			v-0.867h5.203v-2.203h-4.511v-0.868h4.511v-2.004h0.914v2.004h4.559v0.868h-4.559v2.203h5.204v0.867h-4.875
			C402.691,357.143,404.383,358.408,406.508,359.26z M408.289,350.049h8.719v5.308h-0.903v-0.421h-6.914v0.421h-0.902V350.049z
			 M406.941,359.775h3.903v-4.511h0.89v4.511h1.77v-4.511h0.891v4.511h3.96v0.844h-11.414V359.775z M416.105,350.893h-6.914v1.207
			h6.914V350.893z M409.191,354.092h6.914v-1.207h-6.914V354.092z M407.598,356.248l0.691-0.516
			c0.805,1.039,1.438,1.922,1.899,2.649l-0.809,0.586C408.855,358.092,408.262,357.186,407.598,356.248z M417.758,356.213
			c-0.641,1.016-1.258,1.918-1.852,2.707l-0.761-0.527c0.593-0.782,1.187-1.668,1.781-2.661L417.758,356.213z M418.836,353.74
			h11.625v0.879h-5.027v4.735c0,0.976-0.512,1.468-1.536,1.476c-0.543,0-1.152-0.004-1.828-0.012
			c-0.047-0.32-0.105-0.679-0.175-1.078c0.617,0.063,1.199,0.094,1.746,0.094c0.531,0,0.797-0.262,0.797-0.785v-4.43h-5.602V353.74z
			 M419.914,350.283h9.504v0.879h-9.504V350.283z M426.922,356.037l0.785-0.527c0.961,1.179,1.891,2.41,2.789,3.691l-0.855,0.563
			C428.672,358.35,427.766,357.107,426.922,356.037z M421.426,355.486l0.855,0.481c-0.82,1.422-1.695,2.773-2.625,4.054
			c-0.242-0.179-0.5-0.363-0.773-0.55C419.758,358.338,420.605,357.01,421.426,355.486z M437.27,358.047l-0.991,3.123h-0.82
			l0.721-3.123H437.27z M447.875,360.982h-0.914v-5.941h6.516v4.559c0,0.843-0.434,1.269-1.301,1.277
			c-0.461,0.008-1.051,0.012-1.77,0.012c-0.039-0.25-0.097-0.551-0.176-0.903c0.68,0.047,1.235,0.071,1.665,0.071
			c0.445,0,0.667-0.203,0.667-0.61v-0.586h-4.687V360.982z M445.93,353.588h3.785v-0.809h-3v-0.738h3v-0.785h-3.41v-0.738h3.41
			v-1.055h0.949v1.055h3.574v0.738h-3.574v0.785h3.27v0.738h-3.27v0.809h3.809v0.738h-8.543V353.588z M446.504,358.088
			c0.023,0.391,0.051,0.73,0.082,1.019c-0.844,0.563-1.559,1.071-2.145,1.524l-0.539-0.774c0.266-0.25,0.399-0.589,0.399-1.019
			v-4.43h-1.43v-0.855h2.32v5.461C445.629,358.717,446.066,358.408,446.504,358.088z M452.562,355.791h-4.687v0.809h4.687V355.791z
			 M447.875,358.135h4.687v-0.809h-4.687V358.135z M444.195,349.861c0.641,0.633,1.207,1.223,1.7,1.77l-0.821,0.68
			c-0.539-0.696-1.066-1.313-1.582-1.852L444.195,349.861z M454.859,359.881h5.368v-0.867h-4.454v-0.692h4.454v-0.984h-3.165v0.422
			h-0.82v-4.406h3.985v-0.844h-5.274v-0.727h5.274v-0.92c-1.418,0.043-2.887,0.08-4.407,0.112c-0.047-0.25-0.101-0.516-0.164-0.797
			c3.961-0.047,7.168-0.153,9.621-0.317l0.141,0.797c-1.391,0.067-2.84,0.127-4.348,0.182v0.943h5.321v0.727h-5.321v0.844h4.02
			v4.394h-0.82v-0.41h-3.2v0.984h4.465v0.692h-4.465v0.867h5.321v0.726h-11.532V359.881z M461.07,356.658h3.2v-1.008h-3.2V356.658z
			 M457.062,356.658h3.165v-1.008h-3.165V356.658z M464.27,354.033h-3.2v0.996h3.2V354.033z M457.062,355.029h3.165v-0.996h-3.165
			V355.029z M473.387,350.506c1.617-0.016,3.109-0.176,4.476-0.481l0.305,0.903c-1.547,0.203-2.863,0.336-3.949,0.398v2.731h4.277
			v0.797h-1.676v6.14h-0.867v-6.14h-1.734v0.574c0,2.398-0.574,4.265-1.723,5.601c-0.187-0.242-0.394-0.492-0.621-0.75
			c1.008-1.101,1.512-2.73,1.512-4.886V350.506z M467.141,355.768h2.39v-1.114h0.844v1.114h2.297v0.75h-2.297v3.058
			c0,0.828-0.398,1.242-1.195,1.242c-0.336,0-0.715-0.004-1.137-0.011c-0.031-0.258-0.074-0.555-0.129-0.891
			c0.453,0.047,0.809,0.07,1.066,0.07c0.368,0,0.551-0.199,0.551-0.597v-2.871h-2.39V355.768z M466.812,353.576h1.887
			c-0.332-0.527-0.644-0.98-0.937-1.359l0.633-0.446c0.257,0.313,0.589,0.754,0.996,1.325l-0.662,0.48h1.546
			c0.426-0.613,0.819-1.219,1.178-1.816l0.832,0.469c-0.379,0.488-0.74,0.937-1.084,1.347h1.776v0.75h-6.165V353.576z
			 M467.188,350.857h2.531c-0.168-0.32-0.36-0.668-0.574-1.043l0.75-0.351c0.242,0.398,0.468,0.801,0.679,1.207l-0.392,0.187h2.49
			v0.75h-5.484V350.857z M468.043,357.045l0.797,0.375c-0.422,0.883-0.84,1.68-1.254,2.391c-0.227-0.141-0.484-0.282-0.774-0.422
			C467.195,358.795,467.605,358.014,468.043,357.045z M471.418,357.104c0.437,0.593,0.82,1.14,1.148,1.64l-0.75,0.516
			c-0.343-0.602-0.707-1.168-1.089-1.699L471.418,357.104z M485.574,354.982c-0.633,0.196-1.277,0.379-1.933,0.551v1.547h1.886
			v0.797h-1.886v1.746h2.308v-6.246h-3.398v-0.844h3.398v-1.383c-0.922,0.051-1.914,0.098-2.976,0.141
			c-0.047-0.266-0.102-0.543-0.164-0.832c2.507-0.063,4.886-0.207,7.136-0.434l0.164,0.844c-0.957,0.082-2.054,0.16-3.293,0.235
			v1.429h3.68v0.844h-3.68v6.246h2.309v-1.758h-1.863v-0.797h1.863v-1.605h-1.898v-0.797h2.742v6.41h-0.844v-0.656h-5.484v0.691
			h-0.832v-6.187c0.867-0.211,1.656-0.465,2.367-0.762L485.574,354.982z M478.812,355.814c0.504-0.214,0.997-0.435,1.477-0.662
			v-2.642h-1.394v-0.821h1.394v-2.156h0.856v2.156h1.347v0.821h-1.347v2.226c0.421-0.211,0.835-0.425,1.242-0.644
			c0.023,0.39,0.054,0.703,0.093,0.937c-0.445,0.227-0.89,0.453-1.335,0.68v3.984c0,0.797-0.34,1.215-1.02,1.254
			c-0.313,0.016-0.66,0.02-1.043,0.012c-0.031-0.305-0.078-0.629-0.141-0.973c0.375,0.032,0.684,0.047,0.926,0.047
			c0.281,0,0.422-0.148,0.422-0.445v-3.44c-0.453,0.231-0.906,0.463-1.359,0.698L478.812,355.814z M494.797,351.701h1.588
			c0.097-0.699,0.166-1.43,0.205-2.191l0.937,0.07c-0.047,0.734-0.117,1.441-0.211,2.121h5.051v0.82h-5.179
			c-0.086,0.497-0.188,0.977-0.305,1.442h4.418v0.785c-0.399,1.484-1.076,2.738-2.033,3.762c0.867,0.691,1.939,1.183,3.216,1.476
			c-0.265,0.321-0.488,0.637-0.668,0.95c-1.304-0.407-2.39-0.991-3.257-1.752c-0.981,0.824-2.188,1.462-3.621,1.916
			c-0.188-0.329-0.376-0.614-0.563-0.856c1.414-0.406,2.588-0.98,3.521-1.723c-0.691-0.796-1.197-1.75-1.517-2.859
			c-0.578,1.652-1.367,3.078-2.367,4.277c-0.18-0.234-0.387-0.476-0.621-0.726c1.425-1.734,2.38-3.965,2.865-6.692h-1.459V351.701z
			 M490.812,355.721c0.485-0.153,1-0.323,1.547-0.51v-2.666h-1.394v-0.82h1.394v-2.145h0.914v2.145h1.172v0.82h-1.172v2.344
			c0.442-0.16,0.903-0.332,1.383-0.516c-0.008,0.32,0,0.621,0.024,0.902c-0.453,0.168-0.922,0.342-1.407,0.522v3.709
			c0,0.828-0.363,1.269-1.089,1.324c-0.336,0.016-0.719,0.02-1.149,0.012c-0.047-0.328-0.105-0.645-0.176-0.949
			c0.414,0.031,0.758,0.046,1.032,0.046c0.312,0,0.468-0.175,0.468-0.527v-3.269c-0.461,0.175-0.937,0.355-1.429,0.539
			L490.812,355.721z M500.34,354.783h-3.416c0.344,1.246,0.902,2.281,1.676,3.106C499.432,357.033,500.012,355.998,500.34,354.783z
			 M498.828,350.271l0.469-0.632c0.664,0.367,1.285,0.746,1.863,1.136l-0.527,0.727
			C500.008,351.041,499.406,350.631,498.828,350.271z M510.629,357.76c1.008,0.898,1.926,1.801,2.754,2.707l-0.785,0.633
			c-0.246-0.289-0.512-0.592-0.797-0.909c-2.278,0.079-4.399,0.194-6.363,0.346c-0.313,0.031-0.645,0.094-0.997,0.188l-0.48-0.926
			c0.469-0.156,0.848-0.352,1.137-0.586c0.523-0.484,1.066-1.098,1.629-1.84h-3.774v-0.855h11.391v0.855h-6.346
			c-0.676,0.797-1.361,1.539-2.057,2.227c2.391-0.067,4.114-0.118,5.168-0.153c-0.367-0.386-0.761-0.789-1.183-1.207L510.629,357.76
			z M503.316,352.217h4.864v-2.66h0.949v2.66h4.875v2.203h-0.926v-1.348h-8.836v1.348h-0.926V352.217z M512.715,355.217h-8.086
			v-0.856h8.086V355.217z M512.832,350.295c-0.398,0.469-0.953,1.043-1.664,1.723l-0.703-0.598c0.625-0.586,1.152-1.156,1.582-1.711
			L512.832,350.295z M504.477,350.295l0.644-0.563c0.539,0.469,1.094,1.016,1.664,1.641l-0.738,0.645
			C505.523,351.385,505,350.811,504.477,350.295z M518.234,351.854h4.278c-0.008-0.723-0.012-1.508-0.012-2.356h0.926
			c-0.016,0.93-0.02,1.715-0.012,2.356h2.895v0.855h-2.877c0.078,3.305,0.447,5.555,1.107,6.75c0.242,0.406,0.445,0.609,0.609,0.609
			c0.133,0,0.227-0.156,0.282-0.468c0.078-0.477,0.136-1.098,0.175-1.864c0.336,0.133,0.629,0.235,0.879,0.305
			c-0.101,0.883-0.199,1.555-0.293,2.016c-0.125,0.656-0.453,0.984-0.984,0.984c-0.437,0-0.871-0.301-1.301-0.902
			c-0.797-1.157-1.254-3.633-1.371-7.43h-4.301V351.854z M518.023,359.377c0.59-0.078,1.207-0.168,1.852-0.27v-3.632h-1.676v-0.832
			h4.055v0.832h-1.512v3.498c0.613-0.102,1.25-0.213,1.91-0.334c-0.015,0.312-0.023,0.617-0.023,0.914
			c-1.711,0.273-3.168,0.519-4.371,0.738L518.023,359.377z M518.469,356.998c0.039,0.438,0.082,0.816,0.129,1.137
			c-0.524,0.5-1.047,1.019-1.571,1.558c-0.242,0.25-0.445,0.489-0.609,0.715l-0.656-0.75c0.273-0.304,0.41-0.679,0.41-1.125v-4.312
			h-1.36v-0.832h2.25v5.039C517.484,358.021,517.953,357.545,518.469,356.998z M515.961,349.803c0.703,0.687,1.32,1.336,1.851,1.945
			l-0.773,0.668c-0.492-0.648-1.074-1.32-1.746-2.016L515.961,349.803z M523.871,350.318l0.539-0.562
			c0.625,0.461,1.121,0.867,1.488,1.219l-0.644,0.656C524.824,351.17,524.363,350.732,523.871,350.318z"/>
	</g>
</g>
</svg>
